<svg width="17" height="17" viewBox="0 0 17 17" fill="none" xmlns="http://www.w3.org/2000/svg">
<path d="M15.0822 11.0567V8.64597C15.0822 7.95553 14.5215 7.39377 13.8324 7.39377H10.9578C10.2686 7.39377 9.70789 7.95553 9.70789 8.64597V13.8743C9.70789 14.5648 10.2686 15.1265 10.9578 15.1265H13.8324C14.5215 15.1265 15.0822 14.5648 15.0822 13.8743C15.0822 13.5284 15.3619 13.2481 15.7072 13.2481C16.0522 13.2481 16.332 13.5284 16.332 13.8743C16.332 15.2553 15.2107 16.3788 13.8324 16.3788H10.9578C9.57935 16.3788 8.45801 15.2553 8.45801 13.8743V8.64597C8.45801 7.26498 9.57935 6.14144 10.9578 6.14144H13.8324C15.2107 6.14144 16.332 7.26498 16.332 8.64597V11.0567C16.332 11.4025 16.0522 11.6828 15.7072 11.6828C15.3619 11.6828 15.0822 11.4025 15.0822 11.0567ZM13.5199 8.48807H11.2701C10.9251 8.48807 10.6453 8.7684 10.6453 9.11417C10.6453 9.46006 10.9251 9.74039 11.2701 9.74039H13.5199C13.865 9.74039 14.1448 9.46006 14.1448 9.11417C14.1448 8.7684 13.865 8.48807 13.5199 8.48807ZM11.9264 11.337C11.9264 10.9912 11.6466 10.7109 11.3014 10.7109C10.9563 10.7109 10.6765 10.9911 10.6765 11.337C10.6765 11.6828 10.9563 11.9631 11.3014 11.9631C11.6466 11.9631 11.9264 11.6828 11.9264 11.337ZM14.1448 11.337C14.1448 10.9912 13.865 10.7109 13.5199 10.7109C13.1748 10.7109 12.895 10.9911 12.895 11.337C12.895 11.6828 13.1748 11.9631 13.5199 11.9631C13.865 11.9631 14.1448 11.6828 14.1448 11.337ZM11.3014 12.9336C10.9563 12.9336 10.6765 13.214 10.6765 13.5599C10.6765 13.9056 10.9563 14.186 11.3014 14.186C11.6466 14.186 11.9264 13.9056 11.9264 13.5599C11.9264 13.214 11.6466 12.9336 11.3014 12.9336ZM13.5199 12.9336C13.1748 12.9336 12.895 13.214 12.895 13.5599C12.895 13.9056 13.1748 14.186 13.5199 14.186C13.865 14.186 14.1448 13.9056 14.1448 13.5599C14.1448 13.214 13.865 12.9336 13.5199 12.9336ZM7.55188 15.7535C7.55151 16.099 7.27173 16.3788 6.927 16.3788C6.92676 16.3788 6.92651 16.3788 6.92627 16.3788L5.46204 16.3771C5.45715 16.3771 5.45227 16.3771 5.44739 16.377C3.95264 16.3402 2.67944 15.8119 1.7655 14.849C0.8291 13.8623 0.334104 12.4752 0.334104 10.8375C0.334104 9.64352 0.688231 8.49051 1.3866 7.4104C1.91614 6.5913 2.64429 5.81476 3.55054 5.10084C3.32458 5.12175 3.10144 5.13398 2.88452 5.13398C2.13586 5.13398 1.45935 4.99296 0.979002 4.59497C0.664183 4.3342 0.296995 3.84289 0.334715 2.98318C0.349851 2.63777 0.6416 2.36943 0.986448 2.38521C1.3313 2.40037 1.59851 2.69269 1.58337 3.03822C1.56506 3.45553 1.71789 3.58212 1.77539 3.62982C1.92871 3.75678 2.34997 3.95431 3.44897 3.85035C4.27209 3.77256 5.17334 3.5584 5.89746 3.38631C6.02051 3.35708 6.1333 3.33041 6.23743 3.30619L5.43799 1.23269C5.41016 1.16077 5.396 1.0842 5.396 1.00703V0.975715C5.396 0.770113 5.49683 0.577476 5.66577 0.460549C5.83459 0.343743 6.05005 0.317325 6.24207 0.390099C7.64856 0.923611 9.01648 0.923611 10.4242 0.390099C10.6162 0.317447 10.8315 0.343743 11.0005 0.460549C11.1693 0.577476 11.2701 0.770113 11.2701 0.975715V1.00703C11.2701 1.0842 11.256 1.16077 11.2282 1.23269L10.3853 3.41872C10.7084 3.57161 11.1521 3.79763 11.653 4.09729C11.9493 4.27464 12.0461 4.65893 11.8691 4.9559C11.6923 5.25287 11.3086 5.34974 11.0123 5.17251C10.3009 4.747 9.71839 4.48526 9.49048 4.38826H7.23938C7.21973 4.38826 7.19312 4.39047 7.16126 4.39462C6.7854 4.55607 5.56494 5.11576 4.36475 6.05204C2.51953 7.49137 1.58398 9.10145 1.58398 10.8375C1.58398 13.4206 3.07312 15.0628 5.47095 15.1248L6.92773 15.1265C7.27283 15.127 7.55237 15.4076 7.55188 15.7535ZM7.04114 1.91554L7.51172 3.13594H9.15442L9.62512 1.91542C8.76465 2.08053 7.90125 2.08066 7.04114 1.91554ZM5.396 13.9056C5.74109 13.9056 6.02087 13.6253 6.02087 13.2794V12.8595C6.64856 12.7011 7.1145 12.134 7.1145 11.4605V11.2096C7.1145 10.4154 6.46399 9.76938 5.66455 9.76938H5.0614C4.95618 9.76938 4.86377 9.66872 4.86377 9.55387V9.52745C4.86377 9.41762 4.94873 9.33469 5.0614 9.33469H6.17712C6.52222 9.33469 6.802 9.05448 6.802 8.70859C6.802 8.36282 6.52222 8.08249 6.17712 8.08249H6.02087V7.67545C6.02087 7.32968 5.74109 7.04935 5.396 7.04935C5.05078 7.04935 4.771 7.32968 4.771 7.67545V8.11172C4.11157 8.24626 3.61401 8.83004 3.61401 9.52745V9.55399C3.61401 10.3633 4.26331 11.0217 5.0614 11.0217H5.66455C5.77869 11.0217 5.86462 11.1024 5.86462 11.2096V11.4605C5.86462 11.5694 5.77869 11.6516 5.66455 11.6516H4.20862C3.8634 11.6516 3.58362 11.9318 3.58362 12.2777C3.58362 12.6235 3.8634 12.9038 4.20862 12.9038H4.771V13.2795C4.771 13.6253 5.05078 13.9056 5.396 13.9056Z" fill="#5496D0"/>
</svg>
