<svg width="20" height="20" viewBox="0 0 20 20" fill="none" xmlns="http://www.w3.org/2000/svg">
<g clip-path="url(#clip0_550_8124)">
<path d="M16.8647 0H3.13449C1.41313 0 0.0126953 1.40047 0.0126953 3.1218V16.8782C0.0126953 18.5995 1.41313 20 3.13449 20H16.8647C18.5829 20 19.9834 18.6021 19.9864 16.8839C19.9872 16.4524 19.638 16.102 19.2065 16.1012H19.2051C18.7743 16.1012 18.4247 16.4501 18.4239 16.8811C18.4224 17.7393 17.7229 18.4375 16.8647 18.4375H10.7808V10.7812H18.4239V12.9762C18.4239 13.4077 18.7737 13.7575 19.2052 13.7575C19.6367 13.7575 19.9864 13.4077 19.9864 12.9762V3.1218C19.9864 1.40047 18.586 0 16.8647 0ZM1.5752 3.1218C1.5752 2.26199 2.27469 1.5625 3.13449 1.5625H9.21832V9.21875H1.5752V3.1218ZM1.5752 16.8782V10.7812H9.21832V18.4375H3.13449C2.27469 18.4375 1.5752 17.738 1.5752 16.8782ZM10.7808 9.21875V1.5625H16.8647C17.7245 1.5625 18.4239 2.26199 18.4239 3.1218V9.21875H10.7808Z" fill="#4C89BD"/>
<path d="M6.63395 4.60945H6.17781V4.15332C6.17781 3.72184 5.82805 3.37207 5.39656 3.37207C4.96508 3.37207 4.61531 3.72184 4.61531 4.15332V4.60945H4.15918C3.7277 4.60945 3.37793 4.95922 3.37793 5.3907C3.37793 5.82219 3.7277 6.17195 4.15918 6.17195H4.61531V6.62809C4.61531 7.05957 4.96508 7.40934 5.39656 7.40934C5.82805 7.40934 6.17781 7.05957 6.17781 6.62809V6.17195H6.63395C7.06543 6.17195 7.41519 5.82219 7.41519 5.3907C7.41519 4.95922 7.06543 4.60945 6.63395 4.60945Z" fill="#4C89BD"/>
<path d="M6.63395 13.8149H4.15918C3.7277 13.8149 3.37793 14.1647 3.37793 14.5962C3.37793 15.0277 3.7277 15.3774 4.15918 15.3774H6.63395C7.06543 15.3774 7.41519 15.0277 7.41519 14.5962C7.41519 14.1647 7.06543 13.8149 6.63395 13.8149Z" fill="#4C89BD"/>
<path d="M15.84 15.0352H13.3652C12.9338 15.0352 12.584 15.3849 12.584 15.8164C12.584 16.2479 12.9338 16.5977 13.3652 16.5977H15.84C16.2715 16.5977 16.6213 16.2479 16.6213 15.8164C16.6213 15.3849 16.2714 15.0352 15.84 15.0352Z" fill="#4C89BD"/>
<path d="M15.84 12.5947H13.3652C12.9338 12.5947 12.584 12.9445 12.584 13.376C12.584 13.8075 12.9338 14.1572 13.3652 14.1572H15.84C16.2715 14.1572 16.6213 13.8075 16.6213 13.376C16.6213 12.9445 16.2714 12.5947 15.84 12.5947Z" fill="#4C89BD"/>
<path d="M16.0299 3.96323C15.7247 3.65808 15.2301 3.65812 14.925 3.96319L14.6025 4.28573L14.28 3.96319C13.9748 3.65808 13.4802 3.65812 13.1751 3.96323C12.87 4.26835 12.87 4.763 13.1751 5.06808L13.4976 5.39058L13.1751 5.71308C12.87 6.01819 12.87 6.51284 13.1751 6.81792C13.3277 6.9705 13.5276 7.04675 13.7276 7.04675C13.9275 7.04675 14.1275 6.97046 14.28 6.81796L14.6025 6.49542L14.9251 6.81796C15.0776 6.9705 15.2775 7.04675 15.4775 7.04675C15.6775 7.04675 15.8774 6.97046 16.03 6.81792C16.3351 6.5128 16.335 6.01815 16.0299 5.71308L15.7073 5.39058L16.0298 5.06808C16.3349 4.763 16.335 4.26835 16.0299 3.96323Z" fill="#4C89BD"/>
</g>
<defs>
<clipPath id="clip0_550_8124">
<rect width="20" height="20" fill="white"/>
</clipPath>
</defs>
</svg>
