<svg width="17" height="20" viewBox="0 0 17 20" fill="none" xmlns="http://www.w3.org/2000/svg">
<path d="M9.66732 9.16699H4.66732M6.33398 12.5003H4.66732M11.334 5.83366H4.66732M14.6673 10.0003V5.66699C14.6673 4.26686 14.6673 3.5668 14.3948 3.03202C14.1552 2.56161 13.7727 2.17916 13.3023 1.93948C12.7675 1.66699 12.0675 1.66699 10.6673 1.66699H5.33399C3.93385 1.66699 3.23379 1.66699 2.69901 1.93948C2.2286 2.17916 1.84615 2.56161 1.60647 3.03202C1.33398 3.5668 1.33398 4.26686 1.33398 5.66699V14.3337C1.33398 15.7338 1.33398 16.4339 1.60647 16.9686C1.84615 17.439 2.2286 17.8215 2.69901 18.0612C3.23379 18.3337 3.93385 18.3337 5.33399 18.3337H8.00065M11.334 13.3337L15.5007 17.5003M15.5007 13.3337L11.334 17.5003" stroke="white" stroke-width="1.67" stroke-linecap="round" stroke-linejoin="round"/>
</svg>
