<svg width="20" height="20" viewBox="0 0 20 20" fill="none" xmlns="http://www.w3.org/2000/svg">
<g clip-path="url(#clip0_879_18405)">
<path d="M9.91833 19.3972C7.42974 19.3972 5.0901 18.4281 3.33036 16.6684C1.57069 14.9087 0.601562 12.569 0.601562 10.0804C0.601562 7.59185 1.57069 5.25221 3.33036 3.49247C5.0901 1.7328 7.42974 0.763672 9.91833 0.763672C12.4069 0.763672 14.7466 1.7328 16.5063 3.49247C18.266 5.25221 19.2351 7.59185 19.2351 10.0804C19.2351 12.569 18.266 14.9087 16.5063 16.6684C14.7466 18.4281 12.4069 19.3972 9.91833 19.3972ZM9.91833 2.21942C7.81857 2.21942 5.8445 3.03711 4.35975 4.52186C2.875 6.00661 2.05731 7.98067 2.05731 10.0804C2.05731 12.1802 2.875 14.1543 4.35975 15.639C5.8445 17.1238 7.81857 17.9415 9.91833 17.9415C12.0181 17.9415 13.9922 17.1238 15.4769 15.639C16.9617 14.1543 17.7794 12.1802 17.7794 10.0804C17.7794 7.98067 16.9617 6.00661 15.4769 4.52186C13.9922 3.03711 12.0181 2.21942 9.91833 2.21942ZM13.0064 14.1979L9.91833 11.1098L6.83022 14.1979L5.80087 13.1686L8.88898 10.0804L5.80087 6.99233L6.83022 5.96298L9.91833 9.05108L13.0064 5.96298L14.0358 6.99233L10.9477 10.0804L14.0358 13.1686L13.0064 14.1979Z" fill="#A1A1A1"/>
</g>
<defs>
<clipPath id="clip0_879_18405">
<rect width="18.6335" height="18.6335" fill="white" transform="translate(0.601562 0.763672)"/>
</clipPath>
</defs>
</svg>
