<svg width="60" height="60" viewBox="0 0 60 60" fill="none" xmlns="http://www.w3.org/2000/svg">
<rect x="2.99976" y="3" width="54.0007" height="54.0007" rx="27.0003" fill="#EBF1FF"/>
<rect x="2.99976" y="3" width="54.0007" height="54.0007" rx="27.0003" stroke="#F5FAFF" stroke-width="5.47059"/>
<path d="M29.4373 37.3081H38.2968M20.5779 37.3081H22.2263C22.7078 37.3081 22.9486 37.3081 23.1752 37.2537C23.3761 37.2055 23.5681 37.1259 23.7443 37.018C23.9429 36.8962 24.1132 36.726 24.4537 36.3855L36.8203 24.0189C37.6358 23.2034 37.6358 21.8812 36.8203 21.0657C36.0048 20.2502 34.6826 20.2502 33.8671 21.0657L21.5005 33.4323C21.16 33.7728 20.9898 33.9431 20.868 34.1418C20.7601 34.3179 20.6805 34.51 20.6323 34.7108C20.5779 34.9374 20.5779 35.1782 20.5779 35.6597V37.3081Z" stroke="#00498F" stroke-width="1.19669" stroke-linecap="round" stroke-linejoin="round"/>
</svg>
