<svg width="20" height="20" viewBox="0 0 20 20" fill="none" xmlns="http://www.w3.org/2000/svg">
<g clip-path="url(#clip0_550_8137)">
<path d="M14.5541 17.9746H9.95992C10.3881 17.5465 18.2721 9.6625 18.7183 9.21625C19.6217 8.31281 19.6217 6.84281 18.7183 5.93941L13.7587 0.979761C12.8552 0.0763623 11.3853 0.0764405 10.4818 0.9798L0.679175 10.7825C-0.226294 11.688 -0.226489 13.1537 0.679175 14.0593L5.63874 19.0189V19.0189C6.0857 19.4659 6.67124 19.6912 7.25828 19.696C7.2646 19.6961 7.27078 19.697 7.27718 19.697H14.5542C15.0298 19.697 15.4153 19.3114 15.4153 18.8358C15.4153 18.3602 15.0297 17.9746 14.5541 17.9746ZM11.6997 2.19773C11.9316 1.96589 12.3088 1.96578 12.5408 2.19773L17.5003 7.1573C17.7322 7.38917 17.7322 7.76644 17.5003 7.99835L13.208 12.2907L7.40734 6.49011L11.6997 2.19773ZM6.85664 17.801L1.89707 12.8414C1.66464 12.6091 1.6646 12.2329 1.89707 12.0004L6.18945 7.708L11.9901 13.5086L7.69769 17.801C7.46671 18.032 7.08882 18.0332 6.85664 17.801Z" fill="#4C89BD"/>
<path d="M19.1383 17.9756H17.6825C17.2068 17.9756 16.8213 18.3612 16.8213 18.8368C16.8213 19.3123 17.2069 19.6979 17.6825 19.6979H19.1383C19.6139 19.6979 19.9995 19.3123 19.9995 18.8368C19.9995 18.3612 19.614 17.9756 19.1383 17.9756Z" fill="#4C89BD"/>
<path d="M17.6675 15.9168C17.6675 15.4413 17.2819 15.0557 16.8063 15.0557H15.3504C14.8748 15.0557 14.4893 15.4413 14.4893 15.9168C14.4893 16.3924 14.8748 16.778 15.3504 16.778H16.8063C17.2819 16.778 17.6675 16.3925 17.6675 15.9168Z" fill="#4C89BD"/>
</g>
<defs>
<clipPath id="clip0_550_8137">
<rect width="20" height="20" fill="white"/>
</clipPath>
</defs>
</svg>
