<svg width="18" height="20" viewBox="0 0 18 20" fill="none" xmlns="http://www.w3.org/2000/svg">
<path d="M9.66671 9.16663H4.66671M6.33337 12.5H4.66671M11.3334 5.83329H4.66671M14.6667 8.74996V5.66663C14.6667 4.26649 14.6667 3.56643 14.3942 3.03165C14.1545 2.56124 13.7721 2.17879 13.3017 1.93911C12.7669 1.66663 12.0668 1.66663 10.6667 1.66663H5.33337C3.93324 1.66663 3.23318 1.66663 2.6984 1.93911C2.22799 2.17879 1.84554 2.56124 1.60586 3.03165C1.33337 3.56643 1.33337 4.26649 1.33337 5.66663V14.3333C1.33337 15.7334 1.33337 16.4335 1.60586 16.9683C1.84554 17.4387 2.22799 17.8211 2.6984 18.0608C3.23318 18.3333 3.93324 18.3333 5.33337 18.3333H7.58337M16.3334 18.3333L15.0834 17.0833M15.9167 15C15.9167 16.6108 14.6109 17.9166 13 17.9166C11.3892 17.9166 10.0834 16.6108 10.0834 15C10.0834 13.3891 11.3892 12.0833 13 12.0833C14.6109 12.0833 15.9167 13.3891 15.9167 15Z" stroke="#667085" stroke-width="1.67" stroke-linecap="round" stroke-linejoin="round"/>
</svg>
