<svg width="17" height="15" viewBox="0 0 17 15" fill="none" xmlns="http://www.w3.org/2000/svg">
<path d="M16.332 4.62378C16.332 6.81177 14.774 8.64587 13.6022 9.8352C13.4799 9.95935 13.3184 10.0215 13.1569 10.0215C12.9984 10.0215 12.8401 9.96167 12.7183 9.84167C12.4724 9.59936 12.4695 9.20361 12.7118 8.95788C14.3289 7.31677 15.082 5.93957 15.082 4.62378C15.082 2.68677 13.8226 1.33398 12.0195 1.33398C10.847 1.33398 9.98132 1.77502 9.44629 2.64502C9.02173 3.33557 8.95557 4.05432 8.95496 4.06152C8.92993 4.38708 8.65845 4.63708 8.33191 4.63708C8.00537 4.63708 7.73389 4.38428 7.70886 4.05872C7.7085 4.05432 7.64233 3.33557 7.21765 2.64502C6.68274 1.77502 5.81702 1.33398 4.64453 1.33398C2.84143 1.33398 1.58203 2.68677 1.58203 4.62378C1.58203 5.49731 1.91345 6.39551 2.59399 7.36523H4.07751L5.11438 5.2467C5.22107 5.02881 5.44507 4.89148 5.68689 4.89661C5.92957 4.90088 6.14771 5.04529 6.24658 5.26685L7.52356 8.12915L8.33679 6.52075C8.44238 6.31201 8.65564 6.17969 8.88953 6.17773H8.89465C9.12659 6.17773 9.33948 6.30615 9.44763 6.51172L9.89685 7.36523H11.3008C11.646 7.36523 11.9258 7.64502 11.9258 7.99023C11.9258 8.33545 11.646 8.61523 11.3008 8.61523H9.51953C9.28748 8.61523 9.07458 8.48669 8.96643 8.28137L8.90564 8.16577L8.04602 9.86597C7.93958 10.0767 7.72363 10.209 7.4884 10.209C7.48328 10.209 7.47827 10.2089 7.47314 10.2087C7.23206 10.203 7.01587 10.0588 6.91748 9.83862L5.64954 6.9967L5.02881 8.26501C4.92395 8.47937 4.70605 8.61523 4.46741 8.61523H0.957031C0.611816 8.61523 0.332031 8.33545 0.332031 7.99023C0.332031 7.64502 0.611816 7.36523 0.957031 7.36523H1.11548C0.5896 6.43506 0.332031 5.53125 0.332031 4.62378C0.332031 3.29639 0.767822 2.15344 1.59241 1.31848C2.37842 0.522339 3.4624 0.0839844 4.64453 0.0839844C6.7113 0.0839844 7.77991 1.14746 8.31238 2.03955C8.31897 2.05054 8.32556 2.06165 8.33203 2.07275C8.3385 2.06165 8.34509 2.05054 8.35168 2.03955C8.88416 1.14746 9.95276 0.0839844 12.0195 0.0839844C13.2017 0.0839844 14.2856 0.522339 15.0717 1.31848C15.8962 2.15344 16.332 3.29639 16.332 4.62378ZM10.5135 10.9818L10.4993 10.9944C9.70483 11.6913 8.94543 12.3582 8.33203 13.0114C7.71863 12.358 6.95911 11.6913 6.16467 10.9943C5.74158 10.6232 5.30408 10.2394 4.88 9.84949C4.62585 9.61584 4.23047 9.63245 3.99695 9.8866C3.76331 10.1406 3.77991 10.536 4.03406 10.7697C4.46887 11.1694 4.91187 11.5581 5.34033 11.934C6.31934 12.7928 7.24414 13.6041 7.84521 14.3508C7.84583 14.3517 7.84656 14.3524 7.84717 14.3533C7.84998 14.3567 7.85291 14.36 7.85583 14.3633C7.86707 14.3766 7.87866 14.3894 7.89087 14.4016C7.8916 14.4023 7.89221 14.4031 7.89282 14.4037C7.90759 14.4183 7.92297 14.4319 7.93884 14.4447C7.93933 14.4451 7.9397 14.4454 7.94019 14.4458C7.94043 14.4462 7.9408 14.4463 7.94104 14.4465C7.95483 14.4576 7.96899 14.468 7.98364 14.4778C7.9845 14.4784 7.98547 14.479 7.98633 14.4796C8.00012 14.4888 8.01428 14.4974 8.02869 14.5054C8.02966 14.506 8.03064 14.5066 8.03174 14.5071C8.04565 14.5148 8.05981 14.5217 8.07434 14.5283C8.07788 14.5299 8.08154 14.5314 8.08508 14.533C8.0968 14.538 8.10864 14.5427 8.12061 14.547C8.12378 14.5481 8.12695 14.5494 8.13 14.5505C8.14343 14.5551 8.15698 14.559 8.17065 14.5626C8.17603 14.5641 8.18127 14.5653 8.18665 14.5666C8.19775 14.5693 8.20898 14.5717 8.22034 14.5737C8.22473 14.5745 8.22913 14.5753 8.23352 14.576C8.2467 14.5781 8.26001 14.5797 8.27319 14.5811C8.27795 14.5814 8.28259 14.5818 8.28735 14.5822C8.30164 14.5833 8.31592 14.5839 8.3302 14.5839C8.33069 14.5839 8.3313 14.584 8.33179 14.584H8.33215H8.33252C8.33301 14.584 8.3335 14.5839 8.33398 14.5839C8.34839 14.5839 8.36255 14.5831 8.37683 14.5822C8.38159 14.5818 8.38635 14.5814 8.39099 14.5811C8.4043 14.5797 8.41736 14.5782 8.43054 14.576C8.43506 14.5754 8.43958 14.5745 8.44421 14.5737C8.45532 14.5717 8.46643 14.5693 8.47754 14.5666C8.48291 14.5654 8.48828 14.5641 8.49365 14.5626C8.5072 14.559 8.52075 14.5551 8.53406 14.5505C8.53735 14.5494 8.54065 14.5481 8.54395 14.5469C8.55566 14.5427 8.56738 14.5381 8.57886 14.5331C8.58264 14.5315 8.58643 14.5299 8.59009 14.5282C8.60437 14.5217 8.61853 14.5148 8.63232 14.5072C8.63354 14.5066 8.63477 14.5059 8.63599 14.5051C8.65015 14.4973 8.66394 14.4888 8.67761 14.4797C8.67871 14.4791 8.67981 14.4784 8.68079 14.4777C8.69531 14.468 8.70935 14.4576 8.72314 14.4465C8.72339 14.4463 8.72375 14.4462 8.72412 14.4458C8.72461 14.4454 8.72498 14.4451 8.72546 14.4446C8.74121 14.4318 8.75659 14.4182 8.77136 14.4037C8.77209 14.4031 8.77271 14.4022 8.77344 14.4015C8.78552 14.3894 8.79724 14.3766 8.80847 14.3633C8.81128 14.36 8.81421 14.3567 8.81702 14.3533C8.81763 14.3524 8.81836 14.3517 8.81909 14.3508C9.42004 13.6041 10.3447 12.7928 11.3237 11.9341L11.3381 11.9214C11.5975 11.6938 11.6234 11.2989 11.3958 11.0394C11.168 10.78 10.7731 10.7541 10.5135 10.9818Z" fill="#5496D0"/>
</svg>
