<svg width="56" height="56" viewBox="0 0 56 56" fill="none" xmlns="http://www.w3.org/2000/svg">
<circle cx="28" cy="28" r="28" fill="#E6EDF4" fill-opacity="0.4"/>
<circle cx="28" cy="28" r="20" fill="#E6EDF4"/>
<path d="M34.6654 28.416V23.666C34.6654 22.2659 34.6654 21.5658 34.3929 21.031C34.1532 20.5606 33.7707 20.1782 33.3003 19.9385C32.7656 19.666 32.0655 19.666 30.6654 19.666H25.332C23.9319 19.666 23.2318 19.666 22.6971 19.9385C22.2266 20.1782 21.8442 20.5606 21.6045 21.031C21.332 21.5658 21.332 22.2659 21.332 23.666V32.3327C21.332 33.7328 21.332 34.4329 21.6045 34.9677C21.8442 35.4381 22.2266 35.8205 22.6971 36.0602C23.2318 36.3327 23.9319 36.3327 25.3319 36.3327H28.4154M29.6654 27.166H24.6654M26.332 30.4993H24.6654M31.332 23.8327H24.6654M30.4987 33.8327L32.9987 36.3327M32.9987 36.3327L35.4987 33.8327M32.9987 36.3327V31.3327" stroke="#00498F" stroke-width="2" stroke-linecap="round" stroke-linejoin="round"/>
</svg>
