<svg width="17" height="17" viewBox="0 0 17 17" fill="none" xmlns="http://www.w3.org/2000/svg">
<g clip-path="url(#clip0_5274_4153)">
<path d="M10.832 10.541C10.4868 10.541 10.207 10.8208 10.207 11.166V11.5321L7.52396 8.84909C7.27987 8.60499 6.88415 8.60499 6.64009 8.84909L5.83203 9.65715L3.77396 7.59909C3.52987 7.35499 3.13415 7.35499 2.89009 7.59909C2.64603 7.84318 2.646 8.2389 2.89009 8.48296L5.39009 10.983C5.63418 11.2271 6.0299 11.2271 6.27396 10.983L7.08203 10.1749L9.32315 12.416H8.95703C8.61184 12.416 8.33203 12.6958 8.33203 13.041C8.33203 13.3862 8.61184 13.666 8.95703 13.666H10.832C11.1814 13.666 11.457 13.3802 11.457 13.041V11.166C11.457 10.8208 11.1772 10.541 10.832 10.541Z" fill="#5496D0"/>
<path d="M15.707 8.66602H15.082V5.54102C15.082 5.19584 14.8022 4.91602 14.457 4.91602H12.3409L8.77397 1.34909C8.52987 1.10499 8.13416 1.10499 7.89009 1.34909L4.32316 4.91602H2.20703C1.17316 4.91602 0.332031 5.75715 0.332031 6.79102V14.291C0.332031 15.3249 1.17316 16.166 2.20703 16.166H14.457C14.8022 16.166 15.082 15.8862 15.082 15.541V12.416H15.707C16.0522 12.416 16.332 12.1362 16.332 11.791V9.29102C16.332 8.94584 16.0522 8.66602 15.707 8.66602ZM8.33203 2.6749L10.5732 4.91602H6.09091L8.33203 2.6749ZM2.20703 14.916C1.86241 14.916 1.58203 14.6356 1.58203 14.291V6.79102C1.58203 6.4464 1.86241 6.16602 2.20703 6.16602H13.832V8.77352C13.1046 9.03152 12.582 9.72624 12.582 10.541C12.582 11.3558 13.1046 12.0505 13.832 12.3085V14.916H2.20703ZM15.082 11.166H14.457C14.1124 11.166 13.832 10.8856 13.832 10.541C13.832 10.1964 14.1124 9.91602 14.457 9.91602H15.082V11.166Z" fill="#5496D0"/>
</g>
<defs>
<clipPath id="clip0_5274_4153">
<rect width="16" height="16" fill="white" transform="translate(0.332031 0.666016)"/>
</clipPath>
</defs>
</svg>
