<svg width="16" height="17" viewBox="0 0 16 17" fill="none" xmlns="http://www.w3.org/2000/svg">
<g clip-path="url(#clip0_30_13029)">
<path d="M10.9375 7.89648C8.61133 7.89648 6.71875 9.78906 6.71875 12.1152C6.71875 14.4414 8.61133 16.334 10.9375 16.334C13.2637 16.334 15.1562 14.4414 15.1562 12.1152C15.1562 9.78906 13.2637 7.89648 10.9375 7.89648ZM10.9375 15.084C9.30054 15.084 7.96875 13.7522 7.96875 12.1152C7.96875 10.4783 9.30054 9.14648 10.9375 9.14648C12.5745 9.14648 13.9062 10.4783 13.9062 12.1152C13.9062 13.7522 12.5745 15.084 10.9375 15.084ZM6.46875 15.709C6.46875 16.0542 6.18896 16.334 5.84375 16.334H3.34375C1.96521 16.334 0.84375 15.2125 0.84375 13.834V4.86072C0.84375 4.21179 1.09534 3.60071 1.55212 3.13989L3.61597 1.05762C4.07178 0.597778 4.70459 0.333984 5.35217 0.333984H11.0278C12.4062 0.333984 13.5278 1.45544 13.5278 2.83398V6.14648C13.5278 6.4917 13.2479 6.77148 12.9028 6.77148C12.5576 6.77148 12.2778 6.4917 12.2778 6.14648V2.83398C12.2778 2.14478 11.717 1.58398 11.0278 1.58398H5.35217C5.03577 1.58398 4.72644 1.71289 4.50378 1.93762L2.43994 4.01978C2.33899 4.12158 2.25879 4.23853 2.20105 4.36523H3.9375C4.45447 4.36523 4.875 3.94458 4.875 3.42773C4.875 3.08252 5.15479 2.80273 5.5 2.80273C5.84521 2.80273 6.125 3.08252 6.125 3.42773C6.125 4.63391 5.14368 5.61523 3.9375 5.61523H2.09375V13.834C2.09375 14.5232 2.65454 15.084 3.34375 15.084H5.84375C6.18896 15.084 6.46875 15.3638 6.46875 15.709Z" fill="#5496D0"/>
<path d="M12.2646 11.6733C12.5087 11.4292 12.5087 11.0335 12.2646 10.7894C12.0205 10.5453 11.6248 10.5453 11.3807 10.7894L10.9388 11.2314L10.4968 10.7894C10.2527 10.5453 9.85704 10.5453 9.61293 10.7894C9.36883 11.0335 9.36883 11.4292 9.61293 11.6733L10.0549 12.1152L9.61293 12.5572C9.36883 12.8013 9.36883 13.197 9.61293 13.4411C9.85704 13.6852 10.2527 13.6852 10.4968 13.4411L10.9388 12.9991L11.3807 13.4411C11.6248 13.6852 12.0205 13.6852 12.2646 13.4411C12.5087 13.197 12.5087 12.8013 12.2646 12.5572L11.8226 12.1152L12.2646 11.6733Z" fill="#5496D0"/>
</g>
<defs>
<clipPath id="clip0_30_13029">
<rect width="16" height="16" fill="white" transform="translate(0 0.333984)"/>
</clipPath>
</defs>
</svg>
