<svg width="56" height="56" viewBox="0 0 56 56" fill="none" xmlns="http://www.w3.org/2000/svg">
<rect x="4" y="4" width="48" height="48" rx="24" fill="#EBF1FF"/>
<rect x="4" y="4" width="48" height="48" rx="24" stroke="#F5FAFF" stroke-width="8"/>
<path d="M24.7931 31.6136C24.7931 31.247 25.0903 30.9498 25.457 30.9498H26.3864C26.753 30.9498 27.0503 31.247 27.0503 31.6136C27.0503 31.9803 26.753 32.2775 26.3864 32.2775H25.457C25.0903 32.2775 24.7931 31.9803 24.7931 31.6136ZM22.3035 30.7839C21.8452 30.7839 21.4737 31.1553 21.4737 31.6137C21.4737 32.0719 21.8452 32.4435 22.3035 32.4435C22.7619 32.4435 23.1333 32.0719 23.1333 31.6137C23.1333 31.1553 22.7619 30.7839 22.3035 30.7839ZM28.6649 27.398C28.6649 27.0313 28.3676 26.7341 28.001 26.7341H25.457C25.0903 26.7341 24.7931 27.0313 24.7931 27.398C24.7931 27.7646 25.0903 28.0619 25.457 28.0619H28.001C28.3676 28.0619 28.6649 27.7646 28.6649 27.398ZM22.3035 26.5682C21.8452 26.5682 21.4737 26.9397 21.4737 27.3981C21.4737 27.8564 21.8452 28.2279 22.3035 28.2279C22.7619 28.2279 23.1333 27.8564 23.1333 27.3981C23.1333 26.9397 22.7619 26.5682 22.3035 26.5682ZM30.5537 23.4148C30.5537 23.0481 30.2565 22.7509 29.8899 22.7509H25.457C25.0903 22.7509 24.7931 23.0481 24.7931 23.4148C24.7931 23.7814 25.0903 24.0787 25.457 24.0787H29.8899C30.2565 24.0787 30.5537 23.7814 30.5537 23.4148ZM22.3035 22.5849C21.8452 22.5849 21.4737 22.9565 21.4737 23.4147C21.4737 23.8731 21.8452 24.2447 22.3035 24.2447C22.7619 24.2447 23.1333 23.8731 23.1333 23.4147C23.1333 22.9565 22.7619 22.5849 22.3035 22.5849ZM19.482 34.0037V20.9917C19.482 20.6255 19.7798 20.3277 20.146 20.3277H33.158C33.524 20.3277 33.8218 20.6255 33.8218 20.9917V25.9407C33.8218 26.3074 34.119 26.6046 34.4856 26.6046C34.8523 26.6046 35.1495 26.3074 35.1495 25.9407V20.9917C35.1495 19.8935 34.2561 19 33.158 19H20.146C19.0478 19 18.1543 19.8935 18.1543 20.9917V34.0037C18.1543 35.1018 19.0478 35.9952 20.146 35.9952H27.1498C27.5165 35.9952 27.8137 35.698 27.8137 35.3313C27.8137 34.9647 27.5165 34.6675 27.1498 34.6675H20.146C19.7798 34.6675 19.482 34.3697 19.482 34.0037ZM34.6848 35.5306C34.4256 35.7898 34.0052 35.7898 33.746 35.5306L33.4723 35.2569C33.1319 34.9165 32.6066 34.8714 32.1417 34.9967C31.8941 35.0634 31.6339 35.099 31.3655 35.099C29.7182 35.099 28.378 33.7588 28.378 32.1116C28.378 30.4643 29.7182 29.1241 31.3655 29.1241C33.0127 29.1241 34.3529 30.4643 34.3529 32.1116C34.3529 32.4276 34.3035 32.7322 34.2121 33.0183C34.0657 33.4767 34.0995 34.0063 34.4397 34.3465L34.6848 34.5917C34.9441 34.8509 34.9441 35.2713 34.6848 35.5306ZM31.3655 33.7712C32.2807 33.7712 33.0251 33.0268 33.0251 32.1116C33.0251 31.1964 32.2807 30.4518 31.3655 30.4518C30.4503 30.4518 29.7057 31.1964 29.7057 32.1116C29.7057 33.0268 30.4503 33.7712 31.3655 33.7712Z" fill="#00498F" stroke="#00498F" stroke-width="0.57"/>
<rect x="31.251" y="26.0312" width="1.90956" height="4.62817" rx="0.954778" transform="rotate(-45 31.251 26.0312)" fill="#00498F"/>
<rect width="1.84939" height="4.62817" rx="0.924697" transform="matrix(-0.707107 -0.707107 -0.707107 0.707107 37.8457 25.9883)" fill="#00498F"/>
</svg>
