<svg width="24" height="24" viewBox="0 0 24 24" fill="none" xmlns="http://www.w3.org/2000/svg">
<path d="M22.5713 3.82678L20.3114 5.21229V0.938739C20.3114 0.208561 19.5091 -0.243805 18.884 0.139517L16.3012 1.72292C16.2962 1.71982 13.7125 0.135955 13.7174 0.138955C13.4185 -0.0430507 13.0475 -0.0420195 12.7539 0.130237L10.1557 1.65523C7.39816 0.0388354 7.56512 0.130143 7.48262 0.0912388C7.20903 -0.0380354 6.8804 -0.0316607 6.59673 0.137127L4.01017 1.65523L1.41199 0.130237C0.788207 -0.235837 0 0.214654 0 0.938739V21.2189C0 22.7524 1.24756 24 2.78108 24H21.2176C22.7511 24 23.9987 22.7524 23.9987 21.2189V4.62605C23.9987 3.89625 23.197 3.44318 22.5713 3.82678ZM2.78108 22.1251C2.28142 22.1251 1.8749 21.7186 1.8749 21.2189V2.57595L3.53563 3.55071C3.82868 3.72268 4.1918 3.72268 4.48466 3.55071L7.08294 2.02571L9.68117 3.55071C9.97422 3.72268 10.3372 3.72268 10.6302 3.55071L13.218 2.0319L15.8112 3.62176C16.1119 3.80611 16.4905 3.80611 16.7912 3.62176L18.4365 2.61307C18.4354 22.815 18.3657 21.4815 18.588 22.1251H2.78108ZM22.1238 21.2189C22.1238 21.7186 21.7173 22.125 21.2176 22.125C20.7179 22.125 20.3114 21.7185 20.3114 21.2189V7.38998C20.4682 7.33237 20.4064 7.34601 22.1238 6.30034V21.2189ZM5.53095 6.46969C5.53095 5.95193 5.95064 5.53224 6.4684 5.53224H13.843C14.3607 5.53224 14.7804 5.95193 14.7804 6.46969C14.7804 6.98744 14.3607 7.40714 13.843 7.40714H6.4684C5.95064 7.40714 5.53095 6.98744 5.53095 6.46969ZM11.0932 12.0006C11.0932 12.5184 10.6735 12.9381 10.1557 12.9381H4.62476C4.10701 12.9381 3.68731 12.5184 3.68731 12.0006C3.68731 11.4829 4.10701 11.0632 4.62476 11.0632H10.1557C10.6735 11.0632 11.0932 11.4829 11.0932 12.0006ZM16.6241 12.0006C16.6241 12.5184 16.2044 12.9381 15.6867 12.9381H13.843C13.3252 12.9381 12.9055 12.5184 12.9055 12.0006C12.9055 11.4829 13.3252 11.0632 13.843 11.0632H15.6867C16.2044 11.0632 16.6241 11.4829 16.6241 12.0006ZM11.0932 17.5316C11.0932 18.0493 10.6735 18.469 10.1557 18.469H4.62476C4.10701 18.469 3.68731 18.0493 3.68731 17.5316C3.68731 17.0138 4.10701 16.5941 4.62476 16.5941H10.1557C10.6735 16.5941 11.0932 17.0138 11.0932 17.5316ZM16.6241 17.5316C16.6241 18.0493 16.2044 18.469 15.6867 18.469H13.843C13.3252 18.469 12.9055 18.0493 12.9055 17.5316C12.9055 17.0138 13.3252 16.5941 13.843 16.5941H15.6867C16.2044 16.5941 16.6241 17.0138 16.6241 17.5316Z" fill="#004A90"/>
</svg>