<svg width="20" height="20" viewBox="0 0 20 20" fill="none" xmlns="http://www.w3.org/2000/svg">
<path d="M18.1195 0C18.0978 0 18.0763 0.000915527 18.0546 0.00274658C17.9269 0.0132752 15.0711 0.275421 13.9979 2.35794L10.1225 1.96411C9.18333 1.86874 8.26292 2.19696 7.59749 2.86346L0.911236 9.52759C-0.304127 10.7451 -0.303669 12.7254 0.912151 13.9423L6.04048 19.0749C6.65648 19.6913 7.46458 20 8.26994 20C9.06416 19.9998 9.85579 19.6997 10.4577 19.0984C10.7628 18.7935 10.7631 18.2991 10.4582 17.9941C10.1535 17.6889 9.65895 17.6888 9.35392 17.9935C8.75074 18.5962 7.75984 18.586 7.14537 17.9709L2.01689 12.8383C1.40898 12.2299 1.40882 11.2398 2.01506 10.6325L8.70146 3.9682C9.03486 3.63434 9.49522 3.47015 9.96458 3.51776L15.9064 4.1217L15.9837 4.88098C14.9014 5.28442 13.8714 5.34882 13.8479 5.35019C13.4178 5.37338 13.0876 5.74066 13.1102 6.17096C13.1322 6.58768 13.4768 6.91086 13.8893 6.91086C13.9032 6.91086 13.9171 6.91055 13.931 6.90979C13.981 6.9072 14.9803 6.84998 16.1462 6.4769L16.5097 10.0464C16.5574 10.5148 16.3942 10.9744 16.0615 11.3078L12.252 15.0615C11.9449 15.3641 11.9412 15.8586 12.2438 16.1658C12.5465 16.4729 13.0409 16.4766 13.3481 16.1739L17.1599 12.4181C17.1611 12.4168 17.1623 12.4156 17.1637 12.4142C17.8311 11.7474 18.1592 10.8267 18.0635 9.88815L17.6489 5.81833C18.1741 5.51086 18.6169 5.14862 18.9709 4.73572C19.6469 3.94669 19.9895 2.99271 19.9887 1.90048V1.86935C19.9887 0.838623 19.1502 0 18.1195 0ZM18.427 1.90094C18.4276 2.77374 18.1116 3.4819 17.4679 4.0419L17.3955 3.33008C17.3579 2.96143 17.0663 2.66983 16.6975 2.63229L15.7918 2.54028C16.591 1.77734 17.9117 1.59073 18.1476 1.56296C18.304 1.5773 18.427 1.70929 18.427 1.86935V1.90094ZM12.0984 11.4407C11.7935 11.7458 11.2991 11.7458 10.9941 11.4407C10.6891 11.1357 10.6891 10.6413 10.9941 10.3365C11.0774 10.2531 11.0925 10.1566 11.0905 10.0902C11.0875 9.98352 11.0409 9.87991 10.9596 9.79874L10.4812 9.32022C10.3572 9.19617 10.1976 9.12689 10.0319 9.12506C9.9156 9.12399 9.74974 9.15405 9.59883 9.30512L9.47554 9.42841C9.22102 9.68277 9.21171 10.1032 9.45494 10.3465L9.96092 10.8524C10.3755 11.2669 10.607 11.814 10.6131 12.3929C10.619 12.9799 10.3927 13.533 9.97541 13.9502L9.91789 14.0077C9.49583 14.4299 8.95216 14.6404 8.40498 14.6404C7.9402 14.6405 7.47313 14.4881 7.07533 14.1852L6.74833 14.5007C6.59681 14.6469 6.40135 14.7195 6.20619 14.7195C6.00172 14.7195 5.79741 14.6397 5.64421 14.4809C5.34468 14.1705 5.35368 13.6761 5.66404 13.3768L5.95671 13.0943C5.62742 12.7376 5.44142 12.2835 5.43119 11.8063C5.42021 11.2863 5.61842 10.7954 5.98951 10.4243C6.29454 10.1195 6.78892 10.1195 7.09394 10.4243C7.39882 10.7294 7.39882 11.2238 7.09394 11.5288C7.02467 11.5979 6.99064 11.6801 6.99263 11.7731C6.99476 11.8729 7.03932 11.9713 7.11836 12.0502L7.94081 12.8726C8.19838 13.1302 8.57359 13.1433 8.81361 12.9034L8.87114 12.8458C8.98909 12.728 9.05302 12.5729 9.05134 12.4091C9.04951 12.2412 8.98039 12.0805 8.85664 11.9568L8.35051 11.4508C7.49418 10.5943 7.50349 9.19174 8.37111 8.32397L8.49455 8.20068C8.90608 7.78915 9.44868 7.56332 10.0247 7.56332H10.0488C10.4471 7.56775 10.8305 7.67975 11.1664 7.88528L11.5018 7.53891C11.8019 7.229 12.2961 7.22107 12.606 7.52106C12.9158 7.82105 12.9237 8.31543 12.6237 8.62534L12.2926 8.96729C12.5146 9.28391 12.6402 9.65607 12.6517 10.0444C12.6671 10.5727 12.4707 11.0686 12.0984 11.4407Z" fill="white"/>
</svg>