<svg width="19" height="18" viewBox="0 0 19 18" fill="none" xmlns="http://www.w3.org/2000/svg">
<path d="M6.83333 1V17M12.1667 1V17M1.5 1.88889C1.5 1.65314 1.59365 1.42705 1.76035 1.26035C1.92705 1.09365 2.15314 1 2.38889 1H16.6111C16.8469 1 17.073 1.09365 17.2397 1.26035C17.4064 1.42705 17.5 1.65314 17.5 1.88889V16.1111C17.5 16.3469 17.4064 16.573 17.2397 16.7397C17.073 16.9064 16.8469 17 16.6111 17H2.38889C2.15314 17 1.92705 16.9064 1.76035 16.7397C1.59365 16.573 1.5 16.3469 1.5 16.1111V1.88889Z" stroke="#667085" stroke-width="1.5" stroke-linecap="round" stroke-linejoin="round"/>
</svg>
