<svg width="20" height="20" viewBox="0 0 20 20" fill="none" xmlns="http://www.w3.org/2000/svg">
<g clip-path="url(#clip0_30_13568)">
<path d="M18.0417 7.72124C17.9612 7.73764 17.8848 7.76973 17.8168 7.81567C17.7487 7.86161 17.6904 7.92051 17.6451 7.989C17.5999 8.05749 17.5685 8.13422 17.5529 8.21482C17.5373 8.29542 17.5377 8.37831 17.5542 8.45874C17.8725 10.0175 17.7008 11.6365 17.0626 13.0938C16.4244 14.551 15.351 15.7752 13.9896 16.5983C12.6283 17.4214 11.0455 17.8032 9.4586 17.6913C7.87166 17.5794 6.3582 16.9793 5.1258 15.9732C3.8934 14.9672 3.00243 13.6045 2.57508 12.0721C2.14773 10.5397 2.20494 8.9126 2.73885 7.41398C3.27276 5.91537 4.25724 4.61863 5.55724 3.70162C6.85725 2.78462 8.40912 2.29226 10 2.29208C10.7841 2.29132 11.5637 2.41077 12.3117 2.64624C12.4687 2.69264 12.6376 2.67558 12.7822 2.59872C12.9268 2.52186 13.0354 2.39134 13.0847 2.23523C13.1341 2.07912 13.1202 1.90988 13.0461 1.7639C12.9719 1.61791 12.8435 1.50685 12.6883 1.45458C10.8164 0.867944 8.80359 0.912926 6.95976 1.58259C5.11594 2.25226 3.54337 3.50947 2.48422 5.16065C1.42507 6.81182 0.938079 8.76537 1.09823 10.7205C1.25838 12.6756 2.05679 14.5239 3.37051 15.9807C4.68424 17.4375 6.44044 18.422 8.36866 18.7827C10.2969 19.1434 12.2902 18.8603 14.0417 17.9768C15.7932 17.0934 17.2057 15.6587 18.0617 13.8937C18.9178 12.1286 19.1699 10.1311 18.7792 8.20874C18.7628 8.1283 18.7307 8.05188 18.6847 7.98384C18.6388 7.9158 18.5799 7.85748 18.5114 7.81221C18.4429 7.76694 18.3662 7.7356 18.2856 7.71999C18.205 7.70439 18.1221 7.70481 18.0417 7.72124ZM15.4417 3.77541L16.0417 3.17624V5.83374C16.0417 5.9995 16.1075 6.15847 16.2247 6.27568C16.3419 6.39289 16.5009 6.45874 16.6667 6.45874C16.8324 6.45874 16.9914 6.39289 17.1086 6.27568C17.2258 6.15847 17.2917 5.9995 17.2917 5.83374V3.17624L17.8917 3.77541C18.0102 3.88581 18.1669 3.94591 18.3288 3.94305C18.4907 3.9402 18.6452 3.8746 18.7597 3.76009C18.8742 3.64558 18.9398 3.49109 18.9426 3.32918C18.9455 3.16726 18.8854 3.01055 18.775 2.89208L17.1083 1.22541C16.991 1.10857 16.8322 1.04297 16.6667 1.04297C16.5011 1.04297 16.3423 1.10857 16.225 1.22541L14.5583 2.89208C14.4479 3.01055 14.3878 3.16726 14.3907 3.32918C14.3935 3.49109 14.4591 3.64558 14.5737 3.76009C14.6882 3.8746 14.8427 3.9402 15.0046 3.94305C15.1665 3.94591 15.3232 3.88581 15.4417 3.77541ZM9.98167 14.7921C10.1474 14.7921 10.3064 14.7262 10.4236 14.609C10.5408 14.4918 10.6067 14.3328 10.6067 14.1671V13.8337C11.1072 13.7616 11.5671 13.5178 11.9077 13.1441C12.2483 12.7703 12.4484 12.2898 12.4738 11.7847C12.4992 11.2797 12.3483 10.7815 12.0469 10.3755C11.7455 9.96941 11.3124 9.6807 10.8217 9.55874L9.48167 9.22541C9.27707 9.17423 9.09584 9.05527 8.9675 8.88791C8.84026 8.72497 8.77184 8.5238 8.77334 8.31707C8.77422 8.0696 8.87309 7.83255 9.04832 7.65779C9.22355 7.48303 9.46086 7.38479 9.70834 7.38457H10.2917C10.522 7.38499 10.7441 7.47017 10.9156 7.62387C11.0871 7.77756 11.1961 7.98902 11.2217 8.21791C11.2285 8.30128 11.252 8.38243 11.2908 8.45655C11.3295 8.53067 11.3828 8.59626 11.4474 8.64943C11.5119 8.70259 11.5865 8.74225 11.6667 8.76605C11.7469 8.78986 11.8311 8.79732 11.9142 8.788C11.9973 8.77869 12.0777 8.75278 12.1507 8.71181C12.2236 8.67085 12.2876 8.61566 12.3388 8.54952C12.39 8.48337 12.4274 8.40763 12.4488 8.32676C12.4702 8.24589 12.4751 8.16155 12.4633 8.07874C12.4098 7.59878 12.1984 7.15017 11.8624 6.80329C11.5263 6.45641 11.0847 6.23088 10.6067 6.16208V5.83374C10.6067 5.66798 10.5408 5.50901 10.4236 5.3918C10.3064 5.27459 10.1474 5.20874 9.98167 5.20874C9.81591 5.20874 9.65694 5.27459 9.53973 5.3918C9.42252 5.50901 9.35667 5.66798 9.35667 5.83374V6.16708C8.86095 6.24772 8.40823 6.49694 8.07494 6.87266C7.74164 7.24838 7.54819 7.72759 7.52723 8.22939C7.50628 8.7312 7.6591 9.22487 7.9599 9.62707C8.2607 10.0293 8.69106 10.3154 9.17834 10.4371L10.5183 10.7704C10.7395 10.8261 10.9328 10.9607 11.0617 11.1488C11.1907 11.337 11.2465 11.5657 11.2186 11.7921C11.1908 12.0185 11.0812 12.2269 10.9105 12.3782C10.7398 12.5295 10.5198 12.6133 10.2917 12.6137H9.70834C9.47803 12.6133 9.25593 12.5281 9.0844 12.3744C8.91288 12.2208 8.80393 12.0093 8.77834 11.7804C8.77151 11.697 8.74802 11.6159 8.70925 11.5418C8.67048 11.4676 8.61723 11.4021 8.55265 11.3489C8.48807 11.2957 8.41347 11.2561 8.33328 11.2323C8.25309 11.2085 8.16894 11.201 8.08581 11.2103C8.00268 11.2196 7.92227 11.2455 7.84934 11.2865C7.77641 11.3275 7.71244 11.3827 7.66123 11.4488C7.61002 11.5149 7.57261 11.5907 7.55121 11.6716C7.52982 11.7524 7.52487 11.8368 7.53667 11.9196C7.58917 12.3937 7.79555 12.8375 8.12424 13.1832C8.45292 13.5289 8.88581 13.7574 9.35667 13.8337V14.1671C9.35667 14.3328 9.42252 14.4918 9.53973 14.609C9.65694 14.7262 9.81591 14.7921 9.98167 14.7921Z" fill="#667085" stroke="#667085" stroke-width="0.4"/>
</g>
<defs>
<clipPath id="clip0_30_13568">
<rect width="20" height="20" fill="white"/>
</clipPath>
</defs>
</svg>
