<svg width="43" height="42" viewBox="0 0 43 42" fill="none" xmlns="http://www.w3.org/2000/svg">
<path d="M25.6666 13.4999C25.8855 13.2811 26.1453 13.1074 26.4313 12.989C26.7173 12.8705 27.0238 12.8096 27.3333 12.8096C27.6428 12.8096 27.9493 12.8705 28.2353 12.989C28.5213 13.1074 28.7811 13.2811 29 13.4999C29.2188 13.7188 29.3924 13.9786 29.5109 14.2646C29.6294 14.5506 29.6903 14.8571 29.6903 15.1666C29.6903 15.4761 29.6294 15.7826 29.5109 16.0686C29.3924 16.3546 29.2188 16.6144 29 16.8333L17.75 28.0833L13.1666 29.3333L14.4166 24.7499L25.6666 13.4999Z" stroke="#667085" stroke-width="1.66667" stroke-linecap="round" stroke-linejoin="round"/>
</svg>
