<svg width="20" height="20" viewBox="0 0 20 20" fill="none" xmlns="http://www.w3.org/2000/svg">
<path d="M11.6667 1.8916V5.33372C11.6667 5.80043 11.6667 6.03378 11.7575 6.21204C11.8374 6.36885 11.9649 6.49633 12.1217 6.57622C12.3 6.66705 12.5333 6.66705 13 6.66705H16.4422M11.6667 1.66699H7.33337C5.93324 1.66699 5.23318 1.66699 4.6984 1.93948C4.22799 2.17916 3.84554 2.56161 3.60586 3.03202C3.33337 3.5668 3.33337 4.26686 3.33337 5.66699V14.3337C3.33337 15.7338 3.33337 16.4339 3.60586 16.9686C3.84554 17.439 4.22799 17.8215 4.6984 18.0612C5.23318 18.3337 5.93324 18.3337 7.33337 18.3337H12.6667C14.0668 18.3337 14.7669 18.3337 15.3017 18.0612C15.7721 17.8215 16.1545 17.439 16.3942 16.9686C16.6667 16.4339 16.6667 15.7338 16.6667 14.3337V6.66699L11.6667 1.66699Z" stroke="#667085" stroke-width="1.5" stroke-linecap="round" stroke-linejoin="round"/>
<path d="M6.10722 12.3056C6.05188 12.2132 6.02421 12.167 6.00873 12.0957C5.99709 12.0422 5.99709 11.9578 6.00873 11.9043C6.02421 11.833 6.05188 11.7868 6.10722 11.6944C6.56451 10.9306 7.92567 9 10 9C12.0743 9 13.4355 10.9306 13.8928 11.6944C13.9481 11.7868 13.9758 11.833 13.9913 11.9043C14.0029 11.9578 14.0029 12.0422 13.9913 12.0957C13.9758 12.167 13.9481 12.2132 13.8928 12.3056C13.4355 13.0694 12.0743 15 10 15C7.92567 15 6.56451 13.0694 6.10722 12.3056Z" stroke="#667085" stroke-width="1.2" stroke-linecap="round" stroke-linejoin="round"/>
<path d="M10 13.2857C10.6732 13.2857 11.219 12.7101 11.219 12C11.219 11.2899 10.6732 10.7143 10 10.7143C9.32677 10.7143 8.781 11.2899 8.781 12C8.781 12.7101 9.32677 13.2857 10 13.2857Z" stroke="#667085" stroke-width="1.2" stroke-linecap="round" stroke-linejoin="round"/>
</svg>
