<svg width="21" height="19" viewBox="0 0 21 19" fill="none" xmlns="http://www.w3.org/2000/svg">
<path d="M7.63881 13.6136C7.63881 13.247 7.93603 12.9498 8.30268 12.9498H9.23211C9.59875 12.9498 9.89597 13.247 9.89597 13.6136C9.89597 13.9803 9.59875 14.2775 9.23211 14.2775H8.30268C7.93603 14.2775 7.63881 13.9803 7.63881 13.6136ZM5.14922 12.7839C4.69086 12.7839 4.3194 13.1553 4.3194 13.6137C4.3194 14.0719 4.69086 14.4435 5.14922 14.4435C5.60758 14.4435 5.97904 14.0719 5.97904 13.6137C5.97904 13.1553 5.60758 12.7839 5.14922 12.7839ZM11.5106 9.39799C11.5106 9.03135 11.2133 8.73412 10.8467 8.73412H8.30268C7.93603 8.73412 7.63881 9.03135 7.63881 9.39799C7.63881 9.76464 7.93603 10.0619 8.30268 10.0619H10.8467C11.2133 10.0619 11.5106 9.76464 11.5106 9.39799ZM5.14922 8.56824C4.69086 8.56824 4.3194 8.9397 4.3194 9.39806C4.3194 9.85641 4.69086 10.2279 5.14922 10.2279C5.60758 10.2279 5.97904 9.85641 5.97904 9.39806C5.97904 8.9397 5.60758 8.56824 5.14922 8.56824ZM13.3995 5.41478C13.3995 5.04814 13.1022 4.75092 12.7356 4.75092H8.30268C7.93603 4.75092 7.63881 5.04814 7.63881 5.41478C7.63881 5.78143 7.93603 6.07865 8.30268 6.07865H12.7356C13.1022 6.07865 13.3995 5.78143 13.3995 5.41478ZM5.14922 4.5849C4.69086 4.5849 4.3194 4.95649 4.3194 5.41472C4.3194 5.87308 4.69086 6.24467 5.14922 6.24467C5.60758 6.24467 5.97904 5.87308 5.97904 5.41472C5.97904 4.95649 5.60758 4.5849 5.14922 4.5849ZM2.32774 16.0037V2.99167C2.32774 2.62553 2.62553 2.32774 2.99167 2.32774H16.0037C16.3697 2.32774 16.6675 2.62553 16.6675 2.99167V7.94074C16.6675 8.30739 16.9647 8.60461 17.3313 8.60461C17.698 8.60461 17.9952 8.30739 17.9952 7.94074V2.99167C17.9952 1.8935 17.1018 1 16.0037 1H2.99167C1.8935 1 1 1.8935 1 2.99167V16.0037C1 17.1018 1.8935 17.9952 2.99167 17.9952H9.99552C10.3622 17.9952 10.6594 17.698 10.6594 17.3313C10.6594 16.9647 10.3622 16.6675 9.99552 16.6675H2.99167C2.62553 16.6675 2.32774 16.3697 2.32774 16.0037ZM17.5306 17.5306C17.2713 17.7898 16.8509 17.7898 16.5917 17.5306L16.318 17.2569C15.9776 16.9165 15.4523 16.8714 14.9874 16.9967C14.7398 17.0634 14.4796 17.099 14.2112 17.099C12.5639 17.099 11.2237 15.7588 11.2237 14.1116C11.2237 12.4643 12.5639 11.1241 14.2112 11.1241C15.8584 11.1241 17.1986 12.4643 17.1986 14.1116C17.1986 14.4276 17.1492 14.7322 17.0578 15.0183C16.9114 15.4767 16.9452 16.0063 17.2854 16.3465L17.5306 16.5917C17.7898 16.8509 17.7898 17.2713 17.5306 17.5306ZM14.2112 15.7712C15.1264 15.7712 15.8708 15.0268 15.8708 14.1116C15.8708 13.1964 15.1264 12.4518 14.2112 12.4518C13.2961 12.4518 12.5514 13.1964 12.5514 14.1116C12.5514 15.0268 13.2961 15.7712 14.2112 15.7712Z" fill="#667085" stroke="#667085" stroke-width="0.3"/>
<rect x="14.0968" y="8.03125" width="1.90956" height="4.62817" rx="0.954778" transform="rotate(-45 14.0968 8.03125)" fill="#667085"/>
<rect width="1.84939" height="4.62817" rx="0.924697" transform="matrix(-0.707107 -0.707107 -0.707107 0.707107 20.6913 7.98828)" fill="#667085"/>
</svg>
