<svg width="20" height="20" viewBox="0 0 20 20" fill="none" xmlns="http://www.w3.org/2000/svg">
<g clip-path="url(#clip0_30_7093)">
<path d="M11.5993 12.1208C11.2322 11.7982 10.7818 11.5643 10.3462 11.3381L10.336 11.3328C9.58601 10.9434 9.39191 10.7346 9.39191 10.3172C9.39191 10.0209 9.65425 9.77992 9.97671 9.77992C10.2642 9.77992 10.5615 9.97129 10.5615 10.2916V10.4865H12.121V10.2916C12.121 9.71996 11.8887 9.18953 11.4668 8.79805C11.2596 8.60582 11.0182 8.45859 10.7565 8.3607V7.09473H9.19695V8.36461C8.39914 8.67031 7.83242 9.43004 7.83242 10.3172C7.83242 11.79 8.99355 12.3929 9.61734 12.7168L9.62753 12.7221C10.4214 13.1343 10.7954 13.3657 10.7954 13.7058C10.7954 14.1482 10.4128 14.5363 9.97668 14.5363C9.53289 14.5363 9.15796 14.1636 9.15796 13.7224V13.4105H7.59851V13.7224C7.59851 14.3517 7.8475 14.9465 8.29957 15.3973C8.55824 15.6553 8.86437 15.8466 9.19695 15.9632V17.2312H10.7564V15.9613C11.0903 15.8427 11.3978 15.648 11.6577 15.3851C12.1073 14.9304 12.3548 14.3339 12.3548 13.7058C12.3548 13.0946 12.1007 12.5613 11.5993 12.1208Z" fill="#00498F"/>
<path d="M18.5536 10.2057C17.813 9.071 16.7879 7.95119 15.5066 6.87752C14.7684 6.25889 14.0334 5.72873 13.3826 5.29736C14.7532 5.07596 16.1575 4.5851 17.166 3.58432C18.0867 2.67057 18.5536 1.46451 18.5536 -0.000488281H16.9941C16.9941 1.04811 16.6911 1.85861 16.0675 2.47736C15.2634 3.27529 13.8704 3.75967 12.0902 3.87268L13.6413 1.05783V-0.000488281H6.31188V1.05783L8.12469 4.34771C7.31297 4.80568 5.89496 5.67455 4.46469 6.87865C3.18922 7.9524 2.16875 9.07229 1.43164 10.2071C0.479102 11.6735 -0.00390625 13.1712 -0.00390625 14.6584C-0.00390625 16.72 0.624883 18.1362 1.91832 18.9881C3.16895 19.8117 4.87359 19.9603 6.37613 19.9972L6.38559 19.9974L13.4265 19.9995H13.4349L13.4434 19.9994C14.9753 19.9667 16.7141 19.824 17.9951 19.0137C19.3416 18.1619 19.9961 16.7373 19.9961 14.6584C19.9961 13.1706 19.5107 11.6725 18.5536 10.2057ZM11.5847 1.55896L10.2957 3.89814H9.6575L8.36856 1.55896H11.5847ZM13.4185 18.4401L6.405 18.4379C4.59375 18.3929 3.50813 18.1678 2.77598 17.6856C2.25207 17.3406 1.55555 16.6514 1.55555 14.6584C1.55555 9.78314 8.23605 6.04533 9.34746 5.4576H10.6065C11.7208 6.04404 18.4366 9.78268 18.4366 14.6584C18.4366 17.762 16.7466 18.3681 13.4185 18.4401Z" fill="#00498F"/>
</g>
<defs>
<clipPath id="clip0_30_7093">
<rect width="20" height="20" fill="white"/>
</clipPath>
</defs>
</svg>
