<svg width="20" height="20" viewBox="0 0 20 20" fill="none" xmlns="http://www.w3.org/2000/svg">
<g clip-path="url(#clip0_30_7077)">
<path d="M4.52588 13.9055C4.95735 13.9055 5.30713 13.5557 5.30713 13.1243C5.30713 12.6928 4.95735 12.343 4.52588 12.343C4.09441 12.343 3.74463 12.6928 3.74463 13.1243C3.74463 13.5557 4.09441 13.9055 4.52588 13.9055Z" fill="#00498F"/>
<path d="M4.52588 17.0305C4.95735 17.0305 5.30713 16.6807 5.30713 16.2493C5.30713 15.8178 4.95735 15.468 4.52588 15.468C4.09441 15.468 3.74463 15.8178 3.74463 16.2493C3.74463 16.6807 4.09441 17.0305 4.52588 17.0305Z" fill="#00498F"/>
<path d="M17.0273 6.24951C16.5959 6.24951 16.2461 6.59928 16.2461 7.03076C16.2461 7.46225 16.5959 7.81201 17.0273 7.81201C18.3197 7.81201 19.3711 6.76061 19.3711 5.46826V3.12451C19.3711 1.40139 17.9692 -0.000488281 16.2461 -0.000488281H3.74609C2.02297 -0.000488281 0.621094 1.40139 0.621094 3.12451V17.6558C0.621094 18.9481 1.6725 19.9995 2.96484 19.9995H12.3398C13.6322 19.9995 14.6836 18.9481 14.6836 17.6558V3.12451C14.6836 2.26295 15.3845 1.56201 16.2461 1.56201C17.1077 1.56201 17.8086 2.26295 17.8086 3.12451V5.46826C17.8086 5.89904 17.4581 6.24951 17.0273 6.24951ZM13.1211 3.12451V17.6558C13.1211 18.0865 12.7706 18.437 12.3398 18.437H2.96484C2.53406 18.437 2.18359 18.0865 2.18359 17.6558V3.12451C2.18359 2.26295 2.88453 1.56201 3.74609 1.56201H13.5405C13.2739 2.02189 13.1211 2.55572 13.1211 3.12451Z" fill="#00498F"/>
<path d="M7.65234 13.9055H10.7773C11.2088 13.9055 11.5586 13.5558 11.5586 13.1243C11.5586 12.6928 11.2088 12.343 10.7773 12.343H7.65234C7.22086 12.343 6.87109 12.6928 6.87109 13.1243C6.87109 13.5558 7.22086 13.9055 7.65234 13.9055Z" fill="#00498F"/>
<path d="M7.65234 17.0305H10.7773C11.2088 17.0305 11.5586 16.6808 11.5586 16.2493C11.5586 15.8178 11.2088 15.468 10.7773 15.468H7.65234C7.22086 15.468 6.87109 15.8178 6.87109 16.2493C6.87109 16.6808 7.22086 17.0305 7.65234 17.0305Z" fill="#00498F"/>
<path d="M7.65178 8.59326C7.29053 8.59326 6.79049 8.53256 6.24366 8.42232C5.82084 8.33705 5.4087 8.61084 5.32342 9.03377C5.23815 9.45674 5.5119 9.86873 5.93487 9.954C6.19553 10.0065 6.52538 10.0648 6.87049 10.1052V10.1558C6.87049 10.5872 7.22026 10.937 7.65174 10.937C8.08323 10.937 8.43299 10.5872 8.43299 10.1558V10.0593C9.45405 9.78897 9.98374 8.9919 9.98374 8.20272C9.98377 7.23209 9.18276 6.24951 7.65178 6.24951C7.14659 6.24951 6.88229 6.05295 6.88229 5.85881C6.88229 5.66475 7.14663 5.46826 7.65178 5.46826C8.01303 5.46826 8.51307 5.52897 9.05991 5.6392C9.48291 5.72455 9.89487 5.45068 9.98014 5.02775C10.0654 4.60479 9.79167 4.19279 9.3687 4.10752C9.10803 4.05498 8.77819 3.99674 8.43307 3.95635V3.90576C8.43307 3.47428 8.08331 3.12451 7.65182 3.12451C7.22034 3.12451 6.87057 3.47428 6.87057 3.90576V4.00396C6.53112 4.09467 6.23084 4.24705 5.98272 4.45795C5.56143 4.81607 5.31979 5.32666 5.31979 5.85881C5.31979 6.82943 6.12081 7.81201 7.65178 7.81201C8.15698 7.81201 8.42127 8.00857 8.42127 8.20272C8.42127 8.39678 8.15698 8.59326 7.65178 8.59326Z" fill="#00498F"/>
</g>
<defs>
<clipPath id="clip0_30_7077">
<rect width="20" height="20" fill="white"/>
</clipPath>
</defs>
</svg>
