<svg width="14" height="14" viewBox="0 0 14 14" fill="none" xmlns="http://www.w3.org/2000/svg">
<g clip-path="url(#clip0_30_7049)">
<path d="M13.1475 8.49615C13.4352 8.49615 13.6684 8.26297 13.6684 7.97532V3.20956C13.6684 2.06081 12.7338 1.12623 11.585 1.12623H10.7943C10.7648 0.86654 10.5444 0.664795 10.2768 0.664795C10.0093 0.664795 9.78885 0.86654 9.75937 1.12623H7.51916C7.48968 0.86654 7.26924 0.664795 7.00169 0.664795C6.73414 0.664795 6.51369 0.86654 6.48421 1.12623H4.24401C4.21453 0.86654 3.99408 0.664795 3.72653 0.664795C3.45898 0.664795 3.23854 0.86654 3.20906 1.12623H2.41836C1.26961 1.12623 0.335022 2.06081 0.335022 3.20956V10.5857C0.335022 11.7344 1.26961 12.669 2.41836 12.669H11.585C12.7338 12.669 13.6684 11.7344 13.6684 10.5857V10.5817C13.6684 10.294 13.4352 10.0609 13.1475 10.0609C12.8599 10.0609 12.6267 10.294 12.6267 10.5817V10.5857C12.6267 11.1601 12.1594 11.6273 11.585 11.6273H2.41836C1.84398 11.6273 1.37669 11.1601 1.37669 10.5857V3.20956C1.37669 2.63519 1.84398 2.16789 2.41836 2.16789H3.2057V3.21576H2.89265C2.605 3.21576 2.37182 3.44894 2.37182 3.73659C2.37182 4.02425 2.605 4.25743 2.89265 4.25743H11.1107C11.3984 4.25743 11.6316 4.02425 11.6316 3.73659C11.6316 3.44894 11.3984 3.21576 11.1107 3.21576H10.7977V2.16789H11.585C12.1594 2.16789 12.6267 2.63519 12.6267 3.20956V7.97529C12.6267 8.26297 12.8599 8.49615 13.1475 8.49615ZM4.24737 2.16789H6.48085V3.21576H4.24737V2.16789ZM9.75601 3.21578H7.52252V2.16789H9.75601V3.21578Z" fill="#5496D0"/>
<path d="M4.56494 5.99756H3.85549C3.56783 5.99756 3.33466 6.23074 3.33466 6.51839C3.33466 6.80605 3.56783 7.03922 3.85549 7.03922H4.56494C4.8526 7.03922 5.08578 6.80605 5.08578 6.51839C5.08578 6.23074 4.8526 5.99756 4.56494 5.99756Z" fill="#5496D0"/>
<path d="M7.35767 5.99756H6.64821C6.36056 5.99756 6.12738 6.23074 6.12738 6.51839C6.12738 6.80605 6.36056 7.03922 6.64821 7.03922H7.35767C7.64532 7.03922 7.8785 6.80605 7.8785 6.51839C7.8785 6.23074 7.6453 5.99756 7.35767 5.99756Z" fill="#5496D0"/>
<path d="M10.1465 5.99756H9.43703C9.14938 5.99756 8.9162 6.23074 8.9162 6.51839C8.9162 6.80605 9.14938 7.03922 9.43703 7.03922H10.1465C10.4341 7.03922 10.6673 6.80605 10.6673 6.51839C10.6673 6.23074 10.4341 5.99756 10.1465 5.99756Z" fill="#5496D0"/>
<path d="M4.56494 8.63086H3.85549C3.56783 8.63086 3.33466 8.86404 3.33466 9.15169C3.33466 9.43935 3.56783 9.67253 3.85549 9.67253H4.56494C4.8526 9.67253 5.08578 9.43935 5.08578 9.15169C5.08578 8.86404 4.8526 8.63086 4.56494 8.63086Z" fill="#5496D0"/>
<path d="M7.35767 8.63086H6.64821C6.36056 8.63086 6.12738 8.86404 6.12738 9.15169C6.12738 9.43935 6.36056 9.67253 6.64821 9.67253H7.35767C7.64532 9.67253 7.8785 9.43935 7.8785 9.15169C7.8785 8.86404 7.6453 8.63086 7.35767 8.63086Z" fill="#5496D0"/>
<path d="M10.1465 8.63086H9.43703C9.14938 8.63086 8.9162 8.86404 8.9162 9.15169C8.9162 9.43935 9.14938 9.67253 9.43703 9.67253H10.1465C10.4341 9.67253 10.6673 9.43935 10.6673 9.15169C10.6673 8.86404 10.4341 8.63086 10.1465 8.63086Z" fill="#5496D0"/>
</g>
<defs>
<clipPath id="clip0_30_7049">
<rect width="13.3333" height="13.3333" fill="white" transform="translate(0.332031)"/>
</clipPath>
</defs>
</svg>
