<svg width="20" height="20" viewBox="0 0 20 20" fill="none" xmlns="http://www.w3.org/2000/svg">
<path d="M11.6673 9.16699H6.66732M8.33398 12.5003H6.66732M13.334 5.83366H6.66732M16.6673 10.0003V5.66699C16.6673 4.26686 16.6673 3.5668 16.3948 3.03202C16.1552 2.56161 15.7727 2.17916 15.3023 1.93948C14.7675 1.66699 14.0675 1.66699 12.6673 1.66699H7.33399C5.93385 1.66699 5.23379 1.66699 4.69901 1.93948C4.2286 2.17916 3.84615 2.56161 3.60647 3.03202C3.33398 3.5668 3.33398 4.26686 3.33398 5.66699V14.3337C3.33398 15.7338 3.33398 16.4339 3.60647 16.9686C3.84615 17.439 4.2286 17.8215 4.69901 18.0612C5.23379 18.3337 5.93385 18.3337 7.33399 18.3337H10.0007M13.334 13.3337L17.5007 17.5003M17.5007 13.3337L13.334 17.5003" stroke="white" stroke-width="1.67" stroke-linecap="round" stroke-linejoin="round"/>
</svg>
