<svg width="20" height="16" viewBox="0 0 20 16" fill="none" xmlns="http://www.w3.org/2000/svg">
<path d="M5.00008 7.16658V10.4999M15.0001 5.49992V8.83325M14.1667 1.33325C16.2073 1.33325 17.311 1.64555 17.8602 1.88779C17.9333 1.92005 17.9699 1.93618 18.0754 2.03689C18.1387 2.09727 18.2542 2.27441 18.2839 2.35666C18.3334 2.49387 18.3334 2.56887 18.3334 2.71887V11.6759C18.3334 12.4332 18.3334 12.8118 18.2199 13.0065C18.1043 13.2044 17.9929 13.2965 17.7767 13.3726C17.5641 13.4474 17.1351 13.3649 16.2769 13.2C15.6762 13.0846 14.9638 12.9999 14.1667 12.9999C11.6667 12.9999 9.16675 14.6666 5.83341 14.6666C3.79283 14.6666 2.68914 14.3543 2.13998 14.112C2.06685 14.0798 2.03028 14.0637 1.92475 13.9629C1.86149 13.9026 1.74601 13.7254 1.71631 13.6432C1.66675 13.506 1.66675 13.431 1.66675 13.281L1.66675 4.32396C1.66675 3.56666 1.66675 3.188 1.78031 2.99337C1.89583 2.79539 2.00724 2.70335 2.22346 2.62726C2.43603 2.55246 2.86511 2.6349 3.72327 2.79979C4.32393 2.9152 5.03631 2.99992 5.83341 2.99992C8.33342 2.99992 10.8334 1.33325 14.1667 1.33325ZM12.0834 7.99992C12.0834 9.15051 11.1507 10.0833 10.0001 10.0833C8.84949 10.0833 7.91675 9.15051 7.91675 7.99992C7.91675 6.84932 8.84949 5.91658 10.0001 5.91658C11.1507 5.91658 12.0834 6.84932 12.0834 7.99992Z" stroke="#00498F" stroke-width="1.5" stroke-linecap="round" stroke-linejoin="round"/>
</svg>
