<svg width="20" height="20" viewBox="0 0 20 20" fill="none" xmlns="http://www.w3.org/2000/svg">
<g clip-path="url(#clip0_2213_5861)">
<path d="M5 3.95117H4.16667C3.72464 3.95117 3.30072 4.12677 2.98816 4.43933C2.67559 4.75189 2.5 5.17581 2.5 5.61784V8.5345C2.5 9.75008 2.98289 10.9159 3.84243 11.7754C4.70197 12.635 5.86776 13.1178 7.08333 13.1178C8.29891 13.1178 9.4647 12.635 10.3242 11.7754C11.1838 10.9159 11.6667 9.75008 11.6667 8.5345V5.61784C11.6667 5.17581 11.4911 4.75189 11.1785 4.43933C10.8659 4.12677 10.442 3.95117 10 3.95117H9.16667" stroke="#00498F" stroke-width="1.66667" stroke-linecap="round" stroke-linejoin="round"/>
<path d="M6.66675 13.1179C6.66675 13.7745 6.79608 14.4247 7.04735 15.0313C7.29862 15.638 7.66692 16.1892 8.13121 16.6535C8.59551 17.1177 9.1467 17.486 9.75333 17.7373C10.36 17.9886 11.0101 18.1179 11.6667 18.1179C12.3234 18.1179 12.9735 17.9886 13.5802 17.7373C14.1868 17.486 14.738 17.1177 15.2023 16.6535C15.6666 16.1892 16.0349 15.638 16.2861 15.0313C16.5374 14.4247 16.6667 13.7745 16.6667 13.1179V10.6179" stroke="#00498F" stroke-width="1.66667" stroke-linecap="round" stroke-linejoin="round"/>
<path d="M9.16675 3.11792V4.78459" stroke="#00498F" stroke-width="1.66667" stroke-linecap="round" stroke-linejoin="round"/>
<path d="M5 3.11792V4.78459" stroke="#00498F" stroke-width="1.66667" stroke-linecap="round" stroke-linejoin="round"/>
<path d="M15 8.95133C15 9.39336 15.1756 9.81728 15.4882 10.1298C15.8007 10.4424 16.2246 10.618 16.6667 10.618C17.1087 10.618 17.5326 10.4424 17.8452 10.1298C18.1577 9.81728 18.3333 9.39336 18.3333 8.95133C18.3333 8.50931 18.1577 8.08538 17.8452 7.77282C17.5326 7.46026 17.1087 7.28467 16.6667 7.28467C16.2246 7.28467 15.8007 7.46026 15.4882 7.77282C15.1756 8.08538 15 8.50931 15 8.95133Z" stroke="#00498F" stroke-width="1.66667" stroke-linecap="round" stroke-linejoin="round"/>
</g>
<defs>
<clipPath id="clip0_2213_5861">
<rect width="20" height="19.3135" fill="white"/>
</clipPath>
</defs>
</svg>
