<svg width="20" height="20" viewBox="0 0 20 20" fill="none" xmlns="http://www.w3.org/2000/svg">
<g clip-path="url(#clip0_2213_5908)">
<path d="M2.5 17.5H17.5" stroke="#00498F" stroke-width="1.66667" stroke-linecap="round" stroke-linejoin="round"/>
<path d="M4.1665 17.5V4.16667C4.1665 3.72464 4.3421 3.30072 4.65466 2.98816C4.96722 2.67559 5.39114 2.5 5.83317 2.5H14.1665C14.6085 2.5 15.0325 2.67559 15.345 2.98816C15.6576 3.30072 15.8332 3.72464 15.8332 4.16667V17.5" stroke="#00498F" stroke-width="1.66667" stroke-linecap="round" stroke-linejoin="round"/>
<path d="M7.5 17.5V14.1667C7.5 13.7246 7.6756 13.3007 7.98816 12.9882C8.30072 12.6756 8.72464 12.5 9.16667 12.5H10.8333C11.2754 12.5 11.6993 12.6756 12.0118 12.9882C12.3244 13.3007 12.5 13.7246 12.5 14.1667V17.5" stroke="#00498F" stroke-width="1.66667" stroke-linecap="round" stroke-linejoin="round"/>
<path d="M8.3335 7.5H11.6668" stroke="#00498F" stroke-width="1.66667" stroke-linecap="round" stroke-linejoin="round"/>
<path d="M10 5.83325V9.16659" stroke="#00498F" stroke-width="1.66667" stroke-linecap="round" stroke-linejoin="round"/>
</g>
<defs>
<clipPath id="clip0_2213_5908">
<rect width="20" height="20" fill="white"/>
</clipPath>
</defs>
</svg>
