<svg width="20" height="20" viewBox="0 0 20 20" fill="none" xmlns="http://www.w3.org/2000/svg">
<path d="M9.99993 12.6378C9.09288 12.6379 8.18614 12.4161 7.35929 11.9727L1.39712 8.77459C0.532555 8.31089 -0.0026909 7.41415 0.00011869 6.43435C0.00296574 5.45456 0.543418 4.56096 1.41064 4.10221L7.38784 0.940594C9.02347 0.0754659 10.9764 0.0754659 12.612 0.940594L18.5892 4.10221C19.4564 4.56092 19.9969 5.45452 19.9997 6.43435C20.0026 7.41415 19.4673 8.31089 18.6028 8.77459L12.6405 11.9727C11.814 12.4161 10.9068 12.6378 9.99993 12.6378ZM9.99993 1.85439C9.35369 1.85439 8.70748 2.01019 8.11841 2.32179L2.14129 5.48344C1.78016 5.67445 1.56382 6.03168 1.56266 6.43892C1.5615 6.84616 1.7757 7.20463 2.13574 7.39774L8.09795 10.5958C9.28903 11.2346 10.7111 11.2346 11.9021 10.5958L17.8643 7.39774C18.2244 7.20463 18.4386 6.8462 18.4374 6.43892C18.4363 6.03164 18.2199 5.67445 17.8588 5.48344L11.8815 2.32179C11.2924 2.01022 10.6462 1.85439 9.99993 1.85439ZM12.6406 19.0429L19.5878 15.3166C19.9681 15.1126 20.111 14.6391 19.907 14.2589C19.7031 13.8786 19.2295 13.7357 18.8493 13.9397L11.902 17.6659C10.7111 18.3048 9.28899 18.3048 8.09488 17.6643L1.14763 13.9771C0.766425 13.7748 0.293552 13.9198 0.0913367 14.3009C-0.110954 14.6821 0.0340211 15.1549 0.415151 15.3572L7.35933 19.0428C8.18617 19.4863 9.09292 19.708 9.99997 19.708C10.9068 19.708 11.814 19.4863 12.6406 19.0429ZM12.6406 15.5273L19.5878 11.801C19.9681 11.5971 20.111 11.1235 19.907 10.7433C19.7031 10.3631 19.2295 10.2202 18.8493 10.4241L11.902 14.1504C10.7111 14.7893 9.28899 14.7892 8.09488 14.1488L1.14763 10.4616C0.766425 10.2593 0.293552 10.4043 0.0913367 10.7854C-0.110954 11.1665 0.0340211 11.6394 0.415151 11.8417L7.35933 15.5273C8.18617 15.9708 9.09292 16.1925 9.99997 16.1925C10.9068 16.1925 11.814 15.9707 12.6406 15.5273Z" fill="#00498F"/>
</svg>
