<svg width="18" height="17" viewBox="0 0 18 17" fill="none" xmlns="http://www.w3.org/2000/svg">
<path d="M7.95245 2.7436C8.29113 2.69353 8.64051 2.66667 9.00035 2.66667C13.2545 2.66667 16.0461 6.4207 16.9839 7.90569C17.0974 8.08542 17.1542 8.17528 17.1859 8.31389C17.2098 8.41799 17.2098 8.58222 17.1859 8.68631C17.1541 8.82492 17.097 8.91538 16.9827 9.09631C16.7328 9.49179 16.3518 10.0476 15.8471 10.6504M4.6036 4.09586C2.80187 5.31808 1.57871 7.01615 1.01759 7.9044C0.903571 8.08489 0.846562 8.17514 0.814783 8.31373C0.790914 8.41783 0.790905 8.58203 0.814761 8.68613C0.846525 8.82473 0.903276 8.91459 1.01678 9.09432C1.95462 10.5793 4.74618 14.3333 9.00035 14.3333C10.7157 14.3333 12.1932 13.723 13.4073 12.8972M1.50035 1L16.5003 16M7.23258 6.73223C6.78017 7.18464 6.50035 7.80964 6.50035 8.5C6.50035 9.88071 7.61963 11 9.00035 11C9.6907 11 10.3157 10.7202 10.7681 10.2678" stroke="#667085" stroke-width="1.5" stroke-linecap="round" stroke-linejoin="round"/>
</svg>
