<svg width="23" height="21" viewBox="0 0 23 21" fill="none" xmlns="http://www.w3.org/2000/svg">
<path d="M21.3467 13.5477C21.8259 13.5477 22.2144 13.1592 22.2144 12.6799V4.73979C22.2144 2.82588 20.6573 1.26878 18.7434 1.26878H17.426C17.3769 0.836123 17.0096 0.5 16.5639 0.5C16.1181 0.5 15.7508 0.836123 15.7017 1.26878H11.9694C11.9202 0.836123 11.553 0.5 11.1072 0.5C10.6614 0.5 10.2942 0.836123 10.2451 1.26878H6.51268C6.46357 0.836123 6.09629 0.5 5.65053 0.5C5.20477 0.5 4.83749 0.836123 4.78838 1.26878H3.471C1.55709 1.26878 0 2.82588 0 4.73979V17.029C0 18.9429 1.55709 20.5 3.471 20.5H18.7434C20.6573 20.5 22.2144 18.9429 22.2144 17.029V17.0224C22.2144 16.5431 21.8259 16.1546 21.3467 16.1546C20.8674 16.1546 20.4789 16.5431 20.4789 17.0224V17.029C20.4789 17.986 19.7004 18.7645 18.7434 18.7645H3.471C2.51405 18.7645 1.7355 17.986 1.7355 17.029V4.73979C1.7355 3.78283 2.51405 3.00428 3.471 3.00428H4.78278V4.75011H4.26122C3.78196 4.75011 3.39347 5.1386 3.39347 5.61786C3.39347 6.09712 3.78196 6.48561 4.26122 6.48561H17.9532C18.4325 6.48561 18.8209 6.09712 18.8209 5.61786C18.8209 5.1386 18.4325 4.75011 17.9532 4.75011H17.4316V3.00428H18.7434C19.7004 3.00428 20.4789 3.78283 20.4789 4.73979V12.6799C20.4789 13.1592 20.8674 13.5477 21.3467 13.5477ZM6.51828 3.00428H10.2395V4.75011H6.51828V3.00428ZM15.6961 4.75016H11.975V3.00428H15.6961V4.75016Z" fill="#A1A1A1"/>
<path d="M7.04878 9.38477H5.86677C5.38752 9.38477 4.99902 9.77326 4.99902 10.2525C4.99902 10.7318 5.38752 11.1203 5.86677 11.1203H7.04878C7.52804 11.1203 7.91653 10.7318 7.91653 10.2525C7.91653 9.77326 7.52804 9.38477 7.04878 9.38477Z" fill="#A1A1A1"/>
<path d="M11.6982 9.38477H10.5162C10.0369 9.38477 9.64844 9.77326 9.64844 10.2525C9.64844 10.7318 10.0369 11.1203 10.5162 11.1203H11.6982C12.1775 11.1203 12.5659 10.7318 12.5659 10.2525C12.5659 9.77326 12.1774 9.38477 11.6982 9.38477Z" fill="#A1A1A1"/>
<path d="M16.3476 9.38477H15.1656C14.6863 9.38477 14.2979 9.77326 14.2979 10.2525C14.2979 10.7318 14.6863 11.1203 15.1656 11.1203H16.3476C16.8269 11.1203 17.2154 10.7318 17.2154 10.2525C17.2154 9.77326 16.8269 9.38477 16.3476 9.38477Z" fill="#A1A1A1"/>
<path d="M7.04878 13.7725H5.86677C5.38752 13.7725 4.99902 14.161 4.99902 14.6402C4.99902 15.1195 5.38752 15.508 5.86677 15.508H7.04878C7.52804 15.508 7.91653 15.1195 7.91653 14.6402C7.91653 14.161 7.52804 13.7725 7.04878 13.7725Z" fill="#A1A1A1"/>
<path d="M11.6982 13.7725H10.5162C10.0369 13.7725 9.64844 14.161 9.64844 14.6402C9.64844 15.1195 10.0369 15.508 10.5162 15.508H11.6982C12.1775 15.508 12.5659 15.1195 12.5659 14.6402C12.5659 14.161 12.1774 13.7725 11.6982 13.7725Z" fill="#A1A1A1"/>
<path d="M16.3476 13.7725H15.1656C14.6863 13.7725 14.2979 14.161 14.2979 14.6402C14.2979 15.1195 14.6863 15.508 15.1656 15.508H16.3476C16.8269 15.508 17.2154 15.1195 17.2154 14.6402C17.2154 14.161 16.8269 13.7725 16.3476 13.7725Z" fill="#A1A1A1"/>
</svg>
