<svg width="18" height="20" viewBox="0 0 18 20" fill="none" xmlns="http://www.w3.org/2000/svg">
<path d="M9.66671 9.16675H4.66671M6.33337 12.5001H4.66671M11.3334 5.83341H4.66671M14.6667 8.75008V5.66675C14.6667 4.26662 14.6667 3.56655 14.3942 3.03177C14.1545 2.56137 13.7721 2.17892 13.3017 1.93923C12.7669 1.66675 12.0668 1.66675 10.6667 1.66675H5.33337C3.93324 1.66675 3.23318 1.66675 2.6984 1.93923C2.22799 2.17892 1.84554 2.56137 1.60586 3.03177C1.33337 3.56655 1.33337 4.26662 1.33337 5.66675V14.3334C1.33337 15.7335 1.33337 16.4336 1.60586 16.9684C1.84554 17.4388 2.22799 17.8212 2.6984 18.0609C3.23318 18.3334 3.93324 18.3334 5.33337 18.3334H7.58337M16.3334 18.3334L15.0834 17.0834M15.9167 15.0001C15.9167 16.6109 14.6109 17.9167 13 17.9167C11.3892 17.9167 10.0834 16.6109 10.0834 15.0001C10.0834 13.3893 11.3892 12.0834 13 12.0834C14.6109 12.0834 15.9167 13.3893 15.9167 15.0001Z" stroke="white" stroke-width="1.67" stroke-linecap="round" stroke-linejoin="round"/>
</svg>
