<svg width="20" height="24" viewBox="0 0 20 24" fill="none" xmlns="http://www.w3.org/2000/svg">
<path d="M12.1666 1.45868V5.93343C12.1666 6.54015 12.1666 6.84352 12.2847 7.07525C12.3886 7.2791 12.5543 7.44483 12.7582 7.54869C12.9899 7.66676 13.2933 7.66676 13.9 7.66676H18.3747M12.1666 17.4167H5.66665M14.3333 13.0834H9.99998H5.66665M18.6666 9.8206V17.6334C18.6666 19.4535 18.6666 20.3636 18.3124 21.0588C18.0008 21.6703 17.5036 22.1675 16.8921 22.4791C16.1969 22.8334 15.2868 22.8334 13.4666 22.8334H6.53331C4.71314 22.8334 3.80306 22.8334 3.10784 22.4791C2.49632 22.1675 1.99913 21.6703 1.68754 21.0588C1.33331 20.3636 1.33331 19.4535 1.33331 17.6334V6.36669C1.33331 4.54652 1.33331 3.63643 1.68754 2.94122C1.99913 2.32969 2.49632 1.8325 3.10784 1.52092C3.80306 1.16669 4.71314 1.16669 6.53331 1.16669H10.0127C10.8077 1.16669 11.2051 1.16669 11.5791 1.25648C11.9108 1.3361 12.2278 1.46741 12.5186 1.64561C12.8466 1.84659 13.1276 2.12764 13.6897 2.68973L17.1436 6.14364C17.7057 6.70574 17.9867 6.98678 18.1877 7.31476C18.3659 7.60555 18.4972 7.92257 18.5768 8.25418C18.6666 8.62822 18.6666 9.02568 18.6666 9.8206Z" stroke="#6D6D6D" stroke-width="2" stroke-linecap="round" stroke-linejoin="round"/>
</svg>
