<svg width="21" height="24" viewBox="0 0 21 24" fill="none" xmlns="http://www.w3.org/2000/svg">
<path d="M18.6666 12.5416V6.36663C18.6666 4.54646 18.6666 3.63637 18.3124 2.94116C18.0008 2.32963 17.5036 1.83244 16.8921 1.52085C16.1968 1.16663 15.2868 1.16663 13.4666 1.16663H6.53325C4.71308 1.16663 3.803 1.16663 3.10778 1.52085C2.49626 1.83244 1.99907 2.32963 1.68748 2.94116C1.33325 3.63637 1.33325 4.54646 1.33325 6.36663V17.6333C1.33325 19.4535 1.33325 20.3635 1.68748 21.0588C1.99907 21.6703 2.49626 22.1675 3.10778 22.4791C3.803 22.8333 4.71308 22.8333 6.53325 22.8333H9.99992M12.1666 10.9166H5.66658M7.83325 15.25H5.66658M14.3333 6.58329H5.66658M12.7083 19.5833L14.8749 21.75L19.7499 16.875" stroke="currentColor" stroke-width="2" stroke-linecap="round" stroke-linejoin="round"/>
</svg>
