<svg width="20" height="24" viewBox="0 0 20 24" fill="none" xmlns="http://www.w3.org/2000/svg">
<path d="M12.1666 1.45862V5.93337C12.1666 6.54009 12.1666 6.84345 12.2847 7.07519C12.3885 7.27903 12.5543 7.44476 12.7581 7.54863C12.9898 7.6667 13.2932 7.6667 13.8999 7.6667H18.3747M14.3333 13.0833H5.66658M14.3333 17.4166H5.66658M7.83325 8.74996H5.66658M12.1666 1.16663H6.53325C4.71308 1.16663 3.803 1.16663 3.10778 1.52085C2.49626 1.83244 1.99907 2.32963 1.68748 2.94116C1.33325 3.63637 1.33325 4.54646 1.33325 6.36663V17.6333C1.33325 19.4535 1.33325 20.3635 1.68748 21.0588C1.99907 21.6703 2.49626 22.1675 3.10778 22.4791C3.803 22.8333 4.71308 22.8333 6.53325 22.8333H13.4666C15.2868 22.8333 16.1968 22.8333 16.8921 22.4791C17.5036 22.1675 18.0008 21.6703 18.3124 21.0588C18.6666 20.3635 18.6666 19.4535 18.6666 17.6333V7.66663L12.1666 1.16663Z" stroke="#00498F" stroke-width="2" stroke-linecap="round" stroke-linejoin="round"/>
</svg>
