<svg width="22" height="24" viewBox="0 0 22 24" fill="none" xmlns="http://www.w3.org/2000/svg">
<path d="M20.75 9.83335H1.25M15.3333 1.16669V5.50002M6.66667 1.16669V5.50002M6.45 22.8334H15.55C17.3702 22.8334 18.2803 22.8334 18.9755 22.4791C19.587 22.1675 20.0842 21.6703 20.3958 21.0588C20.75 20.3636 20.75 19.4535 20.75 17.6334V8.53335C20.75 6.71318 20.75 5.8031 20.3958 5.10788C20.0842 4.49636 19.587 3.99917 18.9755 3.68758C18.2803 3.33335 17.3702 3.33335 15.55 3.33335H6.45C4.62983 3.33335 3.71974 3.33335 3.02453 3.68758C2.413 3.99917 1.91582 4.49636 1.60423 5.10788C1.25 5.8031 1.25 6.71318 1.25 8.53335V17.6334C1.25 19.4535 1.25 20.3636 1.60423 21.0588C1.91582 21.6703 2.413 22.1675 3.02453 22.4791C3.71974 22.8334 4.62983 22.8334 6.45 22.8334Z" stroke="#6D6D6D" stroke-width="2" stroke-linecap="round" stroke-linejoin="round"/>
</svg>
