<svg width="22" height="22" viewBox="0 0 22 22" fill="none" xmlns="http://www.w3.org/2000/svg">
<path d="M7.1 1.25H2.98333C2.37661 1.25 2.07325 1.25 1.84151 1.36808C1.63767 1.47194 1.47194 1.63767 1.36808 1.84151C1.25 2.07325 1.25 2.37661 1.25 2.98333V7.1C1.25 7.70672 1.25 8.01009 1.36808 8.24182C1.47194 8.44567 1.63767 8.61139 1.84151 8.71526C2.07325 8.83333 2.37661 8.83333 2.98333 8.83333H7.1C7.70672 8.83333 8.01009 8.83333 8.24182 8.71526C8.44567 8.61139 8.61139 8.44567 8.71526 8.24182C8.83333 8.01009 8.83333 7.70672 8.83333 7.1V2.98333C8.83333 2.37661 8.83333 2.07325 8.71526 1.84151C8.61139 1.63767 8.44567 1.47194 8.24182 1.36808C8.01009 1.25 7.70672 1.25 7.1 1.25Z" stroke="#6D6D6D" stroke-width="2" stroke-linecap="round" stroke-linejoin="round"/>
<path d="M19.0167 1.25H14.9C14.2933 1.25 13.9899 1.25 13.7582 1.36808C13.5543 1.47194 13.3886 1.63767 13.2847 1.84151C13.1667 2.07325 13.1667 2.37661 13.1667 2.98333V7.1C13.1667 7.70672 13.1667 8.01009 13.2847 8.24182C13.3886 8.44567 13.5543 8.61139 13.7582 8.71526C13.9899 8.83333 14.2933 8.83333 14.9 8.83333H19.0167C19.6234 8.83333 19.9268 8.83333 20.1585 8.71526C20.3623 8.61139 20.5281 8.44567 20.6319 8.24182C20.75 8.01009 20.75 7.70672 20.75 7.1V2.98333C20.75 2.37661 20.75 2.07325 20.6319 1.84151C20.5281 1.63767 20.3623 1.47194 20.1585 1.36808C19.9268 1.25 19.6234 1.25 19.0167 1.25Z" stroke="#6D6D6D" stroke-width="2" stroke-linecap="round" stroke-linejoin="round"/>
<path d="M19.0167 13.1667H14.9C14.2933 13.1667 13.9899 13.1667 13.7582 13.2847C13.5543 13.3886 13.3886 13.5543 13.2847 13.7582C13.1667 13.9899 13.1667 14.2933 13.1667 14.9V19.0167C13.1667 19.6234 13.1667 19.9268 13.2847 20.1585C13.3886 20.3623 13.5543 20.5281 13.7582 20.6319C13.9899 20.75 14.2933 20.75 14.9 20.75H19.0167C19.6234 20.75 19.9268 20.75 20.1585 20.6319C20.3623 20.5281 20.5281 20.3623 20.6319 20.1585C20.75 19.9268 20.75 19.6234 20.75 19.0167V14.9C20.75 14.2933 20.75 13.9899 20.6319 13.7582C20.5281 13.5543 20.3623 13.3886 20.1585 13.2847C19.9268 13.1667 19.6234 13.1667 19.0167 13.1667Z" stroke="#6D6D6D" stroke-width="2" stroke-linecap="round" stroke-linejoin="round"/>
<path d="M7.1 13.1667H2.98333C2.37661 13.1667 2.07325 13.1667 1.84151 13.2847C1.63767 13.3886 1.47194 13.5543 1.36808 13.7582C1.25 13.9899 1.25 14.2933 1.25 14.9V19.0167C1.25 19.6234 1.25 19.9268 1.36808 20.1585C1.47194 20.3623 1.63767 20.5281 1.84151 20.6319C2.07325 20.75 2.37661 20.75 2.98333 20.75H7.1C7.70672 20.75 8.01009 20.75 8.24182 20.6319C8.44567 20.5281 8.61139 20.3623 8.71526 20.1585C8.83333 19.9268 8.83333 19.6234 8.83333 19.0167V14.9C8.83333 14.2933 8.83333 13.9899 8.71526 13.7582C8.61139 13.5543 8.44567 13.3886 8.24182 13.2847C8.01009 13.1667 7.70672 13.1667 7.1 13.1667Z" stroke="#6D6D6D" stroke-width="2" stroke-linecap="round" stroke-linejoin="round"/>
</svg>
