<svg width="21" height="24" viewBox="0 0 21 24" fill="none" xmlns="http://www.w3.org/2000/svg">
<path d="M12.1666 10.9167H5.66659M7.83325 15.2501H5.66659M14.3333 6.58341H5.66659M18.6666 12.0001V6.36675C18.6666 4.54658 18.6666 3.63649 18.3124 2.94128C18.0008 2.32975 17.5036 1.83257 16.8921 1.52098C16.1968 1.16675 15.2868 1.16675 13.4666 1.16675H6.53325C4.71308 1.16675 3.803 1.16675 3.10778 1.52098C2.49626 1.83257 1.99907 2.32975 1.68748 2.94128C1.33325 3.63649 1.33325 4.54658 1.33325 6.36675V17.6334C1.33325 19.4536 1.33325 20.3637 1.68748 21.0589C1.99907 21.6704 2.49626 22.1676 3.10778 22.4792C3.803 22.8334 4.71308 22.8334 6.53325 22.8334H9.99992M14.3333 16.3334L19.7499 21.7501M19.7499 16.3334L14.3333 21.7501" stroke="#667085" stroke-width="2" stroke-linecap="round" stroke-linejoin="round"/>
</svg>
