<svg width="22" height="24" viewBox="0 0 22 24" fill="none" xmlns="http://www.w3.org/2000/svg">
<path d="M12.1666 10.9167H5.66665M7.83331 15.25H5.66665M14.3333 6.58335H5.66665M18.6666 10.375V6.36669C18.6666 4.54652 18.6666 3.63643 18.3124 2.94122C18.0008 2.32969 17.5036 1.8325 16.8921 1.52092C16.1969 1.16669 15.2868 1.16669 13.4666 1.16669H6.53331C4.71314 1.16669 3.80306 1.16669 3.10784 1.52092C2.49632 1.8325 1.99913 2.32969 1.68754 2.94122C1.33331 3.63643 1.33331 4.54652 1.33331 6.36669V17.6334C1.33331 19.4535 1.33331 20.3636 1.68754 21.0588C1.99913 21.6704 2.49632 22.1675 3.10784 22.4791C3.80306 22.8334 4.71314 22.8334 6.53331 22.8334H9.45831M20.8333 22.8334L19.2083 21.2084M20.2916 18.5C20.2916 20.5941 18.5941 22.2917 16.5 22.2917C14.4059 22.2917 12.7083 20.5941 12.7083 18.5C12.7083 16.4059 14.4059 14.7084 16.5 14.7084C18.5941 14.7084 20.2916 16.4059 20.2916 18.5Z" stroke="#6D6D6D" stroke-width="2" stroke-linecap="round" stroke-linejoin="round"/>
</svg>
