<svg width="17" height="17" viewBox="0 0 17 17" fill="none" xmlns="http://www.w3.org/2000/svg">
<path d="M1.41663 4.95837L7.20011 9.00681C7.66844 9.33464 7.9026 9.49856 8.15731 9.56205C8.3823 9.61813 8.61762 9.61813 8.84261 9.56205C9.09731 9.49856 9.33148 9.33464 9.79981 9.00681L15.5833 4.95837M4.81663 14.1667H12.1833C13.3734 14.1667 13.9685 14.1667 14.423 13.9351C14.8229 13.7314 15.148 13.4063 15.3517 13.0064C15.5833 12.5519 15.5833 11.9568 15.5833 10.7667V6.23337C15.5833 5.04326 15.5833 4.44821 15.3517 3.99364C15.148 3.5938 14.8229 3.26872 14.423 3.06499C13.9685 2.83337 13.3734 2.83337 12.1833 2.83337H4.81663C3.62651 2.83337 3.03146 2.83337 2.5769 3.06499C2.17705 3.26872 1.85197 3.5938 1.64824 3.99364C1.41663 4.44821 1.41663 5.04326 1.41663 6.23337V10.7667C1.41663 11.9568 1.41663 12.5519 1.64824 13.0064C1.85197 13.4063 2.17705 13.7314 2.5769 13.9351C3.03146 14.1667 3.62651 14.1667 4.81663 14.1667Z" stroke="#344054" stroke-width="1.41667" stroke-linecap="round" stroke-linejoin="round"/>
</svg>
