<svg width="20" height="20" viewBox="0 0 20 20" fill="none" xmlns="http://www.w3.org/2000/svg">
<g clip-path="url(#clip0_42_472)">
<path fill-rule="evenodd" clip-rule="evenodd" d="M16.9617 13.9534C16.5498 13.2439 15.9375 11.2363 15.9375 8.61414C15.9375 5.33495 13.2792 2.67664 10 2.67664C6.72081 2.67664 4.0625 5.33495 4.0625 8.61414C4.0625 11.237 3.44945 13.2439 3.03754 13.9534C2.82344 14.3206 2.82188 14.7742 3.03346 15.1428C3.24503 15.5114 3.63748 15.7388 4.0625 15.7391H7.09137C7.37378 17.121 8.58953 18.1135 10 18.1135C11.4105 18.1135 12.6262 17.121 12.9086 15.7391H15.9375C16.3624 15.7386 16.7546 15.511 16.966 15.1425C17.1774 14.7739 17.1758 14.3205 16.9617 13.9534ZM10 16.9266C9.24534 16.9264 8.57273 16.4506 8.32117 15.7391H11.6788C11.4273 16.4506 10.7547 16.9264 10 16.9266ZM4.0625 14.5516C4.63398 13.569 5.25 11.2919 5.25 8.61414C5.25 5.99078 7.37665 3.86414 10 3.86414C12.6234 3.86414 14.75 5.99078 14.75 8.61414C14.75 11.2897 15.3645 13.5668 15.9375 14.5516H4.0625Z" fill="#00498F"/>
</g>
<defs>
<clipPath id="clip0_42_472">
<rect width="19" height="19" fill="white" transform="translate(0.5 0.895386)"/>
</clipPath>
</defs>
</svg>
