<svg width="20" height="24" viewBox="0 0 20 24" fill="none" xmlns="http://www.w3.org/2000/svg">
<path d="M12.1667 1.45868V5.93343C12.1667 6.54015 12.1667 6.84352 12.2848 7.07525C12.3886 7.2791 12.5543 7.44482 12.7582 7.54869C12.9899 7.66676 13.2933 7.66676 13.9 7.66676H18.3748M5.66668 15.25V18.5M14.3333 13.0834V18.5M10 10.375V18.5M18.6667 9.8206V17.6334C18.6667 19.4535 18.6667 20.3636 18.3124 21.0588C18.0009 21.6703 17.5037 22.1675 16.8921 22.4791C16.1969 22.8334 15.2868 22.8334 13.4667 22.8334H6.53334C4.71317 22.8334 3.80309 22.8334 3.10787 22.4791C2.49635 22.1675 1.99916 21.6703 1.68757 21.0588C1.33334 20.3636 1.33334 19.4535 1.33334 17.6334V6.36669C1.33334 4.54652 1.33334 3.63643 1.68757 2.94122C1.99916 2.32969 2.49635 1.8325 3.10787 1.52092C3.80309 1.16669 4.71317 1.16669 6.53334 1.16669H10.0128C10.8077 1.16669 11.2051 1.16669 11.5792 1.25648C11.9108 1.3361 12.2278 1.46741 12.5186 1.64561C12.8466 1.84659 13.1276 2.12764 13.6897 2.68973L17.1436 6.14364C17.7057 6.70573 17.9868 6.98678 18.1878 7.31476C18.366 7.60555 18.4973 7.92257 18.5769 8.25418C18.6667 8.62822 18.6667 9.02568 18.6667 9.8206Z" stroke="#6D6D6D" stroke-width="2" stroke-linecap="round" stroke-linejoin="round"/>
</svg>
